<svg width="236" height="170" viewBox="0 0 236 170" fill="none" xmlns="http://www.w3.org/2000/svg">
<g clip-path="url(#clip0_17_649)">
<path d="M146.689 169.91C149.006 164.905 151.322 159.826 152.327 154.404C153.333 148.981 152.911 143.096 150.031 138.393C147.151 133.69 141.48 130.501 136.069 131.564C131.624 132.437 128.055 135.938 125.966 139.956C123.876 143.975 123.038 148.508 122.225 152.964C121.962 147.902 121.684 142.758 120.002 137.976C118.321 133.193 115.009 128.737 110.29 126.886C105.57 125.036 99.4311 126.491 96.9438 130.908C93.4394 137.131 98.086 145.86 94.0566 151.756C93.3654 145.842 87.1803 141.169 81.302 142.12C75.4236 143.071 71.0278 149.456 72.2371 155.287C72.9566 158.756 75.3238 161.707 78.1539 163.839C80.9839 165.971 84.2755 168.442 87.5315 169.839L146.689 169.91Z" fill="#F2F2F2"/>
<path d="M75.3234 146.298C79.9928 147.931 84.7052 149.581 88.9681 152.133C92.7887 154.42 96.1909 157.499 98.3396 161.442C99.5169 163.558 100.216 165.905 100.387 168.32C100.418 168.825 101.208 168.829 101.177 168.32C100.901 163.823 98.7094 159.708 95.6746 156.453C92.3473 152.885 88.0356 150.448 83.584 148.557C80.9445 147.435 78.2394 146.483 75.5334 145.537C75.0525 145.369 74.8458 146.132 75.3234 146.298Z" fill="white"/>
<path d="M102.257 127.67C105.126 132.45 107.423 137.55 109.102 142.865C110.784 148.179 111.843 153.67 112.259 159.228C112.489 162.339 112.514 165.462 112.334 168.577C112.305 169.085 113.095 169.083 113.124 168.577C113.443 162.961 113.103 157.328 112.111 151.791C111.121 146.255 109.494 140.853 107.263 135.691C106.01 132.791 104.566 129.979 102.939 127.272C102.885 127.185 102.798 127.123 102.699 127.099C102.599 127.074 102.494 127.09 102.406 127.141C102.317 127.193 102.252 127.277 102.224 127.376C102.197 127.475 102.208 127.58 102.257 127.67Z" fill="white"/>
<path d="M140.92 132.208C136.862 141.325 134.006 150.931 132.425 160.785C131.981 163.552 131.637 166.334 131.393 169.129C131.349 169.635 132.139 169.632 132.183 169.129C133.043 159.297 135.168 149.618 138.505 140.33C139.443 137.719 140.475 135.144 141.602 132.607C141.806 132.146 141.126 131.744 140.92 132.208Z" fill="white"/>
<path d="M27.9294 169.319C19.8363 167.212 12.6848 162.45 7.62128 155.794C2.55772 149.139 -0.124639 140.976 0.0041889 132.614C0.0362843 130.531 0.255336 128.404 1.13111 126.513C2.00689 124.623 3.63364 122.987 5.66851 122.539C7.88928 122.051 10.2327 123.05 11.8877 124.609C13.5427 126.169 14.6278 128.226 15.6262 130.269C21.6397 142.575 26.2087 155.779 27.9193 169.368L27.9294 169.319Z" fill="#F2F2F2"/>
<path d="M4.66103 122.95L8.87566 132.526L13.0903 142.102C14.425 145.135 15.7573 148.169 17.1369 151.181C18.5044 154.168 19.9188 157.133 21.4277 160.051C22.9344 162.964 24.5358 165.83 26.274 168.613C26.4905 168.959 26.7091 169.304 26.9298 169.648C27.0825 169.886 27.4643 169.665 27.3105 169.425C25.539 166.664 23.9066 163.815 22.3756 160.914C20.8429 158.01 19.4104 155.053 18.0308 152.073C16.6439 149.078 15.3103 146.058 13.9802 143.036C12.5802 139.856 11.1804 136.676 9.78087 133.495L5.56624 123.919L5.04176 122.727C4.9277 122.468 4.54769 122.692 4.66103 122.95Z" fill="white"/>
<path d="M26.1714 169.385C21.401 170.477 16.4023 169.935 11.9767 167.846C7.55105 165.758 3.95475 162.244 1.76429 157.868C1.21853 156.777 0.758025 155.614 0.702321 154.396C0.646617 153.178 1.04975 151.89 1.98528 151.108C3.00628 150.255 4.49274 150.141 5.77297 150.504C7.0532 150.866 8.17203 151.642 9.24192 152.433C15.6861 157.198 21.6229 162.82 26.1796 169.414L26.1714 169.385Z" fill="#F2F2F2"/>
<path d="M1.57295 151.593L6.34626 155.427L11.1196 159.261C12.6313 160.475 14.1421 161.691 15.6717 162.882C17.1878 164.063 18.7227 165.221 20.2938 166.329C21.8626 167.435 23.4677 168.49 25.1213 169.466C25.3272 169.587 25.5338 169.707 25.7412 169.826C25.8848 169.908 26.0234 169.691 25.8788 169.608C24.2135 168.652 22.5971 167.614 21.0189 166.521C19.4391 165.427 17.8973 164.279 16.3766 163.104C14.8478 161.923 13.3401 160.715 11.8339 159.506C10.2484 158.232 8.6631 156.959 7.07788 155.686L2.30456 151.852L1.71055 151.375C1.58137 151.271 1.44456 151.49 1.57295 151.593Z" fill="white"/>
<path d="M229.338 170H11.4995C11.4582 170 11.4174 169.992 11.3792 169.976C11.3411 169.961 11.3064 169.938 11.2772 169.909C11.248 169.879 11.2248 169.845 11.209 169.807C11.1932 169.769 11.1851 169.728 11.1851 169.687C11.1851 169.645 11.1932 169.604 11.209 169.566C11.2248 169.528 11.248 169.494 11.2772 169.465C11.3064 169.435 11.3411 169.412 11.3792 169.397C11.4174 169.381 11.4582 169.373 11.4995 169.373H229.338C229.421 169.373 229.501 169.406 229.56 169.465C229.618 169.524 229.651 169.603 229.651 169.687C229.651 169.77 229.618 169.849 229.56 169.908C229.501 169.967 229.421 170 229.338 170Z" fill="#3F3D56"/>
<path d="M223.615 138.589H208.867C208.867 138.763 208.798 138.931 208.674 139.054C208.551 139.177 208.383 139.247 208.209 139.247H193.732C193.527 139.401 193.341 139.578 193.176 139.774C192.681 140.364 192.411 141.11 192.413 141.88V142.407C192.413 143.28 192.76 144.117 193.377 144.734C193.994 145.351 194.831 145.698 195.704 145.698H223.615C224.488 145.697 225.325 145.35 225.942 144.733C226.559 144.116 226.906 143.279 226.907 142.407V141.88C226.906 141.007 226.558 140.171 225.941 139.554C225.324 138.937 224.488 138.59 223.615 138.589Z" fill="#3F3D56"/>
<path d="M211.502 145.567H208.079V169.792H211.502V145.567Z" fill="#3F3D56"/>
<path d="M221.244 169.672C221.244 170.042 216.057 169.815 209.658 169.815C203.26 169.815 198.073 170.042 198.073 169.672C198.073 169.302 203.26 166.369 209.658 166.369C216.057 166.369 221.244 169.302 221.244 169.672Z" fill="#3F3D56"/>
<path d="M222.97 139.347L222.396 135.755C222.324 135.303 222.074 134.897 221.703 134.628C221.332 134.359 220.869 134.248 220.416 134.32L214.494 135.265L204.351 136.885L201.052 137.411H208.209C208.384 137.412 208.551 137.481 208.674 137.604C208.798 137.728 208.867 137.895 208.867 138.07V138.588C208.867 138.763 208.798 138.93 208.674 139.054C208.551 139.177 208.384 139.247 208.209 139.247H189.996C189.741 139.366 189.521 139.547 189.356 139.773C189.216 139.958 189.114 140.168 189.058 140.393C189.002 140.617 188.992 140.851 189.029 141.079L189.192 142.101L189.39 143.341L189.603 144.674C189.676 145.125 189.924 145.53 190.294 145.798C190.665 146.067 191.126 146.177 191.578 146.106L196.283 145.356L209.855 143.189L221.535 141.324C221.987 141.251 222.391 141.002 222.66 140.631C222.929 140.261 223.04 139.799 222.97 139.347Z" fill="#4357AD"/>
<path d="M195.923 139.773C195.75 139.544 195.52 139.362 195.257 139.247H190.222C189.957 139.361 189.727 139.543 189.553 139.773C189.319 140.073 189.192 140.443 189.192 140.824V160.891C189.193 161.348 189.375 161.787 189.698 162.11C190.022 162.433 190.46 162.615 190.917 162.616H194.559C195.016 162.615 195.454 162.433 195.778 162.11C196.101 161.787 196.283 161.348 196.283 160.891V140.824C196.284 140.443 196.157 140.074 195.923 139.773Z" fill="#4357AD"/>
<path d="M206.882 105.595L206.848 105.551L204.588 102.767C204.468 102.618 204.323 102.491 204.159 102.391C204.072 102.332 203.979 102.284 203.88 102.249C203.736 102.191 203.584 102.154 203.43 102.138C203.327 102.127 203.223 102.125 203.119 102.133C203.117 102.133 203.115 102.134 203.114 102.135C202.765 102.161 202.432 102.293 202.161 102.515L197.524 106.275L191.565 111.109L182.673 118.324L182.025 118.851H193.276L193.927 118.324L196.078 116.578L196.231 116.457L206.621 108.028L206.629 108.023C206.843 107.851 207.012 107.63 207.121 107.378C207.194 107.213 207.24 107.038 207.258 106.859C207.282 106.634 207.261 106.406 207.197 106.19C207.132 105.973 207.025 105.771 206.882 105.595Z" fill="#4357AD"/>
<path d="M206.848 105.551C206.702 104.841 206.38 104.18 205.91 103.628C205.442 103.073 204.839 102.647 204.159 102.391C204.054 102.351 203.951 102.314 203.846 102.285C203.608 102.215 203.365 102.164 203.119 102.133C203.117 102.133 203.115 102.134 203.114 102.135C202.006 102.007 200.892 102.315 200.007 102.994L191.986 109.124C191.816 109.276 191.678 109.461 191.581 109.668C191.483 109.875 191.429 110.099 191.42 110.327C191.408 110.595 191.457 110.863 191.565 111.109C191.591 111.164 191.62 111.22 191.652 111.272C191.713 111.379 191.788 111.478 191.873 111.567L193.158 113.01L196.147 116.362L196.231 116.457L196.423 116.676C196.576 116.843 196.761 116.979 196.966 117.075C197.172 117.172 197.394 117.226 197.621 117.236C197.848 117.246 198.074 117.212 198.288 117.134C198.501 117.056 198.697 116.937 198.864 116.784L205.781 109.353C206.141 108.967 206.425 108.518 206.621 108.028C206.937 107.242 207.016 106.381 206.848 105.551Z" fill="#2F2E41"/>
<path d="M209.906 96.0156C217.195 96.0156 223.103 90.1067 223.103 82.8177C223.103 75.5288 217.195 69.6199 209.906 69.6199C202.617 69.6199 196.708 75.5288 196.708 82.8177C196.708 90.1067 202.617 96.0156 209.906 96.0156Z" fill="#4357AD"/>
<path d="M214.855 137.53L214.494 135.266L214.281 133.936C214.208 133.484 213.959 133.079 213.588 132.811C213.218 132.542 212.756 132.432 212.303 132.503L202.711 134.033L200.109 134.449L199.583 134.534V137.412H208.209C208.383 137.412 208.551 137.481 208.674 137.604C208.798 137.728 208.867 137.895 208.867 138.07V138.589C208.867 138.763 208.798 138.931 208.674 139.054C208.551 139.177 208.383 139.247 208.209 139.247H180.911C180.911 139.252 180.914 139.257 180.914 139.263L181.077 140.284L181.488 142.854C181.56 143.306 181.809 143.71 182.179 143.979C182.549 144.247 183.011 144.358 183.463 144.287L188.168 143.536L189.192 143.373L189.39 143.341L196.283 142.241L200.973 141.49L208.414 140.303L208.525 140.284L213.42 139.505C213.872 139.433 214.276 139.184 214.545 138.814C214.814 138.444 214.926 137.982 214.855 137.53Z" fill="#4357AD"/>
<path d="M227.868 127.845C227.868 138.604 226.775 145.04 209.923 143.196C209.899 143.194 209.878 143.191 209.855 143.189C206.849 142.892 203.876 142.323 200.973 141.49C199.464 141.05 197.998 140.475 196.591 139.773C196.26 139.605 195.941 139.428 195.628 139.247H208.209C208.383 139.247 208.551 139.177 208.674 139.054C208.798 138.93 208.867 138.763 208.867 138.588V138.07C208.867 137.895 208.798 137.728 208.674 137.604C208.551 137.481 208.383 137.411 208.209 137.411H199.583V120.78C199.582 120.269 199.378 119.778 199.017 119.417C198.655 119.055 198.164 118.851 197.653 118.85H190.635C190.696 118.677 190.756 118.5 190.822 118.324C191.481 116.502 192.261 114.727 193.158 113.01C194.387 110.626 195.849 108.37 197.524 106.274C198.69 104.814 199.999 103.475 201.431 102.275C204.072 100.094 206.948 98.7463 209.865 98.7463C220.624 98.7463 227.868 117.086 227.868 127.845Z" fill="#2F2E41"/>
<path d="M210.183 87.7094L210.197 87.2163C209.279 87.1907 208.47 87.1332 207.862 86.6891C207.69 86.556 207.548 86.3874 207.447 86.1948C207.346 86.0021 207.287 85.7898 207.275 85.5724C207.264 85.4396 207.284 85.3061 207.334 85.1823C207.383 85.0585 207.46 84.9477 207.559 84.8586C207.963 84.5179 208.612 84.6282 209.085 84.8451L209.493 85.0323L208.711 79.3135L208.222 79.3804L208.888 84.245C208.615 84.1439 208.322 84.1126 208.034 84.154C207.747 84.1954 207.474 84.3082 207.241 84.482C207.084 84.6188 206.961 84.7899 206.882 84.9821C206.802 85.1743 206.768 85.3822 206.782 85.5898C206.797 85.8818 206.875 86.1672 207.011 86.4259C207.147 86.6847 207.339 86.9104 207.571 87.0874C208.352 87.6582 209.367 87.6866 210.183 87.7094Z" fill="#2F2E41"/>
<path d="M205.806 79.7998H203.149V80.293H205.806V79.7998Z" fill="#2F2E41"/>
<path d="M214.19 79.7998H211.534V80.293H214.19V79.7998Z" fill="#2F2E41"/>
<path d="M220.439 79.1915C219.412 77.6464 217.606 76.9914 215.825 76.8321C213.82 76.6528 211.883 77.0394 209.926 77.4149C207.772 77.8283 205.492 78.215 203.322 77.6924C202.362 77.4703 201.465 77.0331 200.698 76.4138C199.931 75.7945 199.315 75.0092 198.896 74.1172C198.102 72.3769 197.931 70.416 198.412 68.5642C198.92 66.5948 200.183 64.8619 201.713 63.5531C204.837 60.8816 209.064 59.6811 213.129 59.7942C217.18 59.8987 221.094 61.2752 224.319 63.7285C227.549 66.2705 229.821 69.8321 230.766 73.8322C231.754 77.7994 231.432 81.9797 229.849 85.7489C228.959 87.8128 227.672 89.6735 226.679 91.6854C225.755 93.5586 225.043 95.7365 225.618 97.8259C226.123 99.6594 227.605 101.288 229.465 101.786C230.311 102.008 231.207 101.949 232.017 101.619C232.827 101.288 233.508 100.703 233.957 99.952C234.887 98.4856 234.91 96.5649 233.513 95.3809C233.161 95.0775 232.751 94.8488 232.308 94.7088C231.865 94.5688 231.398 94.5204 230.935 94.5665C230.473 94.6127 230.024 94.7524 229.618 94.9772C229.211 95.2021 228.854 95.5073 228.569 95.8743C228.002 96.6101 227.749 97.5395 227.863 98.4609C227.932 98.9267 227.219 99.1277 227.15 98.6576C226.983 97.6831 227.168 96.6811 227.671 95.8301C228.175 94.9791 228.964 94.3344 229.898 94.0109C230.832 93.6873 231.851 93.706 232.772 94.0635C233.694 94.421 234.459 95.0941 234.931 95.9629C235.773 97.5461 235.319 99.4557 234.25 100.809C233.698 101.53 232.951 102.076 232.097 102.384C231.243 102.691 230.318 102.745 229.434 102.541C227.488 102.091 225.897 100.545 225.148 98.7277C224.315 96.7046 224.697 94.447 225.509 92.4839C226.387 90.3619 227.691 88.4587 228.722 86.4137C229.656 84.5657 230.25 82.565 230.477 80.5069C230.929 76.3741 229.992 72.2082 227.811 68.6683C225.588 65.1833 222.196 62.6051 218.243 61.3967C214.319 60.1359 210.083 60.2479 206.231 61.7144C202.472 63.1955 198.842 66.4234 198.885 70.7585C198.904 72.6104 199.591 74.4989 201.01 75.7341C202.705 77.2102 205.065 77.3364 207.196 77.106C209.341 76.8742 211.423 76.2479 213.577 76.0881C215.45 75.9492 217.471 76.0937 219.144 77.0244C219.923 77.4587 220.586 78.0739 221.077 78.8181C221.342 79.2158 220.701 79.5867 220.439 79.1915Z" fill="#2F2E41"/>
<path d="M217.751 109.369L216.706 108.642L214.76 107.291C214.384 107.031 213.92 106.931 213.47 107.012C213.019 107.093 212.62 107.35 212.359 107.726L206.015 116.855L200.109 125.354L199.583 126.113V137.412H199.63C200.041 137.371 200.423 137.184 200.707 136.885C200.768 136.822 200.824 136.754 200.873 136.682L202.711 134.033L207.253 127.495L211.961 120.723L212.409 120.078L218.181 111.77C218.212 111.726 218.241 111.68 218.268 111.633C218.294 111.588 218.318 111.541 218.339 111.494C218.504 111.127 218.536 110.713 218.429 110.325C218.322 109.937 218.082 109.599 217.751 109.369Z" fill="#4357AD"/>
<path d="M217.77 105.756C217.584 105.634 217.388 105.526 217.185 105.435C216.286 105.022 215.272 104.932 214.313 105.18C213.355 105.427 212.512 105.997 211.924 106.793L205.931 114.919C205.811 115.113 205.73 115.328 205.694 115.553C205.658 115.778 205.666 116.008 205.72 116.23C205.773 116.451 205.87 116.66 206.005 116.843C206.14 117.027 206.31 117.182 206.505 117.3L211.961 120.723L212.029 120.765L212.303 120.936C212.695 121.173 213.165 121.245 213.609 121.136C214.054 121.028 214.437 120.747 214.676 120.357L218.907 111.957L218.978 111.817L218.981 111.815L219.242 111.291C219.717 110.348 219.83 109.264 219.558 108.243C219.287 107.223 218.651 106.338 217.77 105.756Z" fill="#2F2E41"/>
<path d="M181.077 139.247V159.072C181.078 159.529 181.259 159.967 181.583 160.291C181.906 160.614 182.344 160.796 182.802 160.796H186.443C186.9 160.796 187.339 160.614 187.662 160.291C187.985 159.967 188.167 159.529 188.168 159.072V139.247H181.077Z" fill="#4357AD"/>
<path d="M208.209 136.885H200.109V120.781C200.109 120.129 199.85 119.505 199.389 119.044C198.928 118.584 198.304 118.325 197.653 118.324H167.616C166.965 118.324 166.339 118.583 165.878 119.044C165.417 119.504 165.158 120.129 165.157 120.781V137.317C165.158 137.969 165.417 138.593 165.878 139.054C166.339 139.515 166.965 139.773 167.616 139.774H208.209C208.251 139.774 208.291 139.771 208.33 139.768C208.367 139.766 208.404 139.758 208.441 139.753C208.709 139.698 208.951 139.553 209.125 139.34C209.298 139.128 209.393 138.863 209.394 138.589V138.07C209.394 137.756 209.269 137.454 209.047 137.232C208.825 137.01 208.523 136.885 208.209 136.885ZM208.209 139.247H167.616C167.104 139.247 166.613 139.043 166.251 138.682C165.888 138.32 165.684 137.829 165.684 137.317V120.781C165.684 120.269 165.888 119.778 166.251 119.416C166.613 119.054 167.104 118.851 167.616 118.851H197.653C198.164 118.851 198.655 119.055 199.017 119.417C199.378 119.779 199.582 120.269 199.583 120.781V137.412H208.209C208.383 137.412 208.551 137.481 208.674 137.605C208.798 137.728 208.867 137.895 208.867 138.07V138.589C208.867 138.763 208.798 138.931 208.674 139.054C208.551 139.177 208.383 139.247 208.209 139.247Z" fill="#3F3D56"/>
<path d="M182.634 131.074C183.752 131.074 184.659 130.167 184.659 129.049C184.659 127.931 183.752 127.024 182.634 127.024C181.515 127.024 180.609 127.931 180.609 129.049C180.609 130.167 181.515 131.074 182.634 131.074Z" fill="#4357AD"/>
<path d="M32.1234 95.1462C39.9064 95.1462 46.2157 88.8368 46.2157 81.0538C46.2157 73.2708 39.9064 66.9614 32.1234 66.9614C24.3404 66.9614 18.031 73.2708 18.031 81.0538C18.031 88.8368 24.3404 95.1462 32.1234 95.1462Z" fill="#4357AD"/>
<path d="M29.3763 134.067H25.4899C25.0361 134.068 24.601 134.248 24.2801 134.569C23.9592 134.89 23.7788 135.325 23.7783 135.779V168.169C23.7787 168.623 23.9592 169.058 24.2801 169.379C24.601 169.7 25.0361 169.88 25.4899 169.881H29.3763C29.8301 169.88 30.2652 169.7 30.5861 169.379C30.907 169.058 31.0874 168.623 31.0879 168.169V135.779C31.0874 135.325 30.907 134.89 30.5861 134.569C30.2652 134.248 29.8301 134.068 29.3763 134.067Z" fill="#2F2E41"/>
<path d="M37.589 134.067H33.7025C33.2487 134.068 32.8136 134.248 32.4927 134.569C32.1719 134.89 31.9914 135.325 31.991 135.779V168.169C31.9914 168.623 32.1719 169.058 32.4927 169.379C32.8136 169.7 33.2487 169.88 33.7025 169.881H37.589C37.8137 169.881 38.0363 169.837 38.244 169.751C38.4516 169.665 38.6403 169.538 38.7992 169.38C38.9582 169.221 39.0842 169.032 39.1703 168.824C39.2563 168.617 39.3005 168.394 39.3005 168.169V135.779C39.3005 135.554 39.2563 135.332 39.1703 135.124C39.0842 134.916 38.9582 134.728 38.7992 134.569C38.6403 134.41 38.4516 134.284 38.244 134.198C38.0363 134.112 37.8137 134.067 37.589 134.067Z" fill="#2F2E41"/>
<path d="M40.4039 102.535C39.0419 100.775 37.1637 99.485 35.0322 98.8449C32.9006 98.2049 30.6223 98.2472 28.516 98.9659C26.4097 99.6847 24.5808 101.044 23.2851 102.853C21.9894 104.663 21.2918 106.832 21.2899 109.058V137.743C21.2888 137.831 21.2959 137.918 21.311 138.004C21.3735 138.443 21.5921 138.844 21.9268 139.135C22.2615 139.426 22.6898 139.586 23.1331 139.586H40.7937C41.2822 139.585 41.7505 139.391 42.0959 139.045C42.4414 138.7 42.6359 138.232 42.6369 137.743V109.058C42.6402 106.696 41.8542 104.4 40.4039 102.535Z" fill="#2F2E41"/>
<path d="M44.0239 87.2834L44.0093 86.7568C44.989 86.7295 45.8527 86.668 46.5018 86.1939C46.6858 86.0518 46.837 85.8718 46.9452 85.666C47.0534 85.4603 47.116 85.2336 47.1288 85.0015C47.1402 84.8597 47.1188 84.7171 47.0661 84.5849C47.0135 84.4528 46.931 84.3345 46.8253 84.2393C46.3944 83.8755 45.7012 83.9932 45.1959 84.2249L44.7601 84.4247L45.5957 78.3184L46.1175 78.3898L45.4067 83.5841C46.0933 83.3823 46.7295 83.4692 47.1652 83.8372C47.3325 83.9832 47.4638 84.166 47.5487 84.3712C47.6337 84.5764 47.6701 84.7984 47.6551 85.02C47.6397 85.3319 47.5563 85.6366 47.4107 85.9129C47.2652 86.1891 47.0609 86.4302 46.8124 86.6192C45.9785 87.2286 44.8947 87.259 44.0239 87.2834Z" fill="#2F2E41"/>
<path d="M42.5814 78.8376H39.7451V79.3643H42.5814V78.8376Z" fill="#2F2E41"/>
<path d="M27.9912 102.941C27.8392 102.775 27.6557 102.641 27.4513 102.546C27.247 102.452 27.0259 102.399 26.801 102.391L23.7387 102.264L22.9197 102.23C22.4663 102.212 22.024 102.374 21.6899 102.681C21.3557 102.988 21.1569 103.415 21.137 103.868L20.6526 115.538L19.7968 136.232C19.7793 136.664 19.9256 137.086 20.2064 137.415C20.4871 137.743 20.8816 137.954 21.3109 138.004C21.353 138.009 21.3925 138.012 21.4347 138.015L23.7782 138.112L25.3186 138.175C25.4419 138.181 25.5655 138.173 25.6872 138.152C26.0089 138.094 26.3075 137.946 26.5482 137.725C26.7142 137.573 26.8484 137.389 26.9429 137.185C27.0373 136.981 27.0902 136.76 27.0985 136.535L27.2012 134.068L27.957 115.817L28.4414 104.171C28.4603 103.717 28.2984 103.275 27.9912 102.941Z" fill="#4357AD"/>
<path d="M25.7478 100.387C25.4205 100.318 25.0869 100.283 24.7524 100.284C23.4609 100.286 22.2228 100.799 21.3096 101.713C20.3964 102.626 19.8827 103.864 19.8811 105.156V114.108C19.8818 114.392 19.9527 114.671 20.0873 114.92C20.2219 115.169 20.4161 115.382 20.6527 115.538C20.8455 115.665 21.0624 115.751 21.2899 115.791C21.3897 115.81 21.491 115.819 21.5926 115.82H27.9122C27.9272 115.82 27.9422 115.819 27.9571 115.817C28.4028 115.806 28.8265 115.621 29.1378 115.301C29.4491 114.982 29.6235 114.554 29.6237 114.108V105.156C29.6223 104.037 29.2365 102.952 28.5309 102.084C27.8252 101.216 26.8427 100.617 25.7478 100.387Z" fill="#2F2E41"/>
<path d="M59.4995 125.884C59.0864 125.67 58.7621 125.318 58.5838 124.888C58.4055 124.459 58.3847 123.981 58.5251 123.537L60.0234 118.769L59.5862 118.405L48.0873 108.892L40.4038 102.535L39.469 101.761C39.1195 101.472 38.6693 101.333 38.2175 101.376C37.7657 101.418 37.3492 101.638 37.0597 101.988L34.5819 104.984C34.4382 105.157 34.3301 105.357 34.2637 105.572C34.1973 105.786 34.174 106.012 34.195 106.236C34.216 106.46 34.281 106.677 34.3863 106.876C34.4915 107.075 34.6349 107.251 34.8083 107.394L42.6368 113.871L43.5268 114.606L59.7653 128.04C60.0657 128.29 60.4423 128.429 60.8328 128.435C61.2232 128.44 61.6038 128.312 61.9113 128.072C61.9961 128.005 62.0738 127.93 62.143 127.848C62.1543 127.837 62.1648 127.826 62.1746 127.814L62.488 127.434L59.4995 125.884Z" fill="#4357AD"/>
<path d="M47.5343 107.065L40.6066 101.395C40.1116 100.99 39.5416 100.686 38.9292 100.501C38.3168 100.316 37.6739 100.254 37.0373 100.317C36.4008 100.381 35.7829 100.569 35.2191 100.871C34.6552 101.173 34.1564 101.584 33.7511 102.079C33.3459 102.574 33.042 103.144 32.857 103.756C32.6721 104.368 32.6095 105.011 32.6729 105.648C32.8011 106.934 33.4347 108.116 34.4344 108.934L41.3622 114.603C41.6674 114.853 42.0495 114.99 42.444 114.99C42.8384 114.991 43.2209 114.855 43.5267 114.606C43.6178 114.535 43.7 114.454 43.7715 114.364L47.7739 109.474C47.9156 109.302 48.0221 109.105 48.0873 108.892C48.1858 108.567 48.1859 108.22 48.0875 107.895C47.989 107.569 47.7966 107.281 47.5343 107.065Z" fill="#2F2E41"/>
<path d="M28.5903 83.4396C27.8565 82.2137 27.2822 80.8629 27.5548 79.4104C27.7982 78.1133 28.7317 77.1032 30.0739 76.9706C30.8822 76.8907 31.6866 77.1065 32.4761 77.2471C33.1232 77.3607 33.7808 77.4033 34.4372 77.3741C35.7579 77.3141 37.0526 76.9858 38.2424 76.4093C39.4501 75.8441 40.5227 75.027 41.3882 74.0127C42.2537 72.9984 42.8921 71.8106 43.2602 70.5291C44.0612 67.6132 43.4665 64.3021 41.5644 61.9286L42.2246 61.7543L41.365 64.5782C41.3483 64.6361 41.3186 64.6894 41.2783 64.7342C41.2379 64.779 41.188 64.8141 41.1321 64.8368C41.0763 64.8595 41.016 64.8693 40.9559 64.8654C40.8957 64.8615 40.8372 64.844 40.7848 64.8142C39.227 63.8299 37.4854 63.1723 35.6658 62.8814C33.8462 62.5905 31.9865 62.6723 30.1994 63.1218C29.1896 63.3755 28.2143 63.7506 27.2948 64.239C26.8461 64.4775 26.4465 63.7959 26.8961 63.5569C28.6232 62.6559 30.5151 62.1147 32.4574 61.9659C34.3997 61.8171 36.3519 62.0639 38.1961 62.6913C39.2464 63.0492 40.2495 63.533 41.1835 64.1321L40.6033 64.3682L41.4628 61.5443C41.482 61.4783 41.5179 61.4183 41.5671 61.3703C41.6163 61.3223 41.6771 61.2878 41.7436 61.2703C41.81 61.2527 41.8799 61.2527 41.9464 61.2702C42.0129 61.2876 42.0737 61.322 42.123 61.37C43.0077 62.4922 43.656 63.7819 44.0289 65.1613C44.4019 66.5408 44.4917 67.9815 44.293 69.3966C44.101 70.7913 43.6163 72.1297 42.8708 73.324C42.1253 74.5183 41.1358 75.5416 39.9671 76.3267C38.7996 77.1147 37.4874 77.6635 36.1065 77.9411C34.7255 78.2187 33.3032 78.2197 31.9219 77.944C31.1488 77.7954 30.2721 77.5826 29.5136 77.9063C29.2385 78.039 28.996 78.2307 28.8033 78.4677C28.6106 78.7047 28.4725 78.9812 28.3987 79.2776C27.9689 80.7341 28.7003 82.1172 29.4474 83.3282L28.5903 83.4396Z" fill="#2F2E41"/>
<path d="M80.001 112.615L66.9748 105.076C66.6504 104.889 66.288 104.777 65.9143 104.748C65.5407 104.719 65.1654 104.775 64.8161 104.91C64.4668 105.046 64.1524 105.259 63.8962 105.532C63.64 105.805 63.4485 106.133 63.3359 106.49L59.5862 118.405L58.0221 123.379C57.8449 123.941 57.8717 124.546 58.0976 125.09C58.3235 125.633 58.7342 126.079 59.257 126.35L62.143 127.848L71.5592 132.732C71.9153 132.918 72.311 133.014 72.7125 133.014C73.0089 133.013 73.303 132.961 73.5813 132.859L73.5999 132.851C73.9288 132.725 74.2277 132.532 74.4772 132.283C74.7267 132.035 74.9212 131.736 75.0481 131.408L81.0832 115.675C81.2983 115.12 81.3075 114.506 81.1089 113.945C80.9104 113.383 80.5174 112.912 80.001 112.615ZM80.5908 115.488L74.5556 131.221C74.4552 131.48 74.3013 131.716 74.104 131.912C73.9066 132.108 73.6702 132.26 73.4102 132.358L73.3971 132.364C73.1389 132.459 72.8637 132.5 72.589 132.483C72.3143 132.466 72.046 132.392 71.8014 132.266L62.4879 127.434L59.4994 125.884C59.0864 125.67 58.762 125.318 58.5838 124.888C58.4055 124.459 58.3847 123.981 58.5251 123.537L60.0233 118.769L63.8361 106.648C63.9257 106.367 64.0772 106.109 64.2796 105.893C64.4819 105.678 64.73 105.51 65.0055 105.403C65.281 105.296 65.5771 105.252 65.8718 105.274C66.1666 105.297 66.4526 105.385 66.7089 105.532L79.735 113.071C80.1432 113.305 80.454 113.677 80.611 114.121C80.768 114.564 80.7608 115.049 80.5908 115.488Z" fill="#3F3D56"/>
<path d="M75.6307 117.656C75.4987 117.656 75.3689 117.623 75.2531 117.56L66.5637 112.82C66.3805 112.719 66.2447 112.55 66.186 112.349C66.1274 112.149 66.1506 111.933 66.2507 111.749C66.3509 111.566 66.5196 111.429 66.7201 111.37C66.9206 111.311 67.1364 111.333 67.3202 111.433L76.0096 116.172C76.1638 116.257 76.2855 116.39 76.3556 116.551C76.4257 116.712 76.4402 116.891 76.3967 117.062C76.3532 117.232 76.2543 117.383 76.1156 117.49C75.9769 117.598 75.8063 117.656 75.6307 117.656Z" fill="#4357AD"/>
<path d="M74.0508 121.079C73.9189 121.079 73.789 121.046 73.6733 120.983L64.9839 116.243C64.8007 116.142 64.6649 115.973 64.6062 115.772C64.5475 115.572 64.5708 115.356 64.6709 115.172C64.771 114.989 64.9398 114.853 65.1403 114.793C65.3407 114.734 65.5565 114.756 65.7404 114.856L74.4298 119.596C74.5839 119.68 74.7057 119.813 74.7758 119.974C74.8459 120.135 74.8603 120.315 74.8169 120.485C74.7734 120.655 74.6745 120.806 74.5358 120.913C74.3971 121.021 74.2264 121.079 74.0508 121.079Z" fill="#4357AD"/>
<path d="M72.7342 124.765C72.6022 124.765 72.4724 124.732 72.3566 124.669L63.6672 119.929C63.484 119.829 63.3482 119.659 63.2896 119.459C63.2309 119.258 63.2542 119.042 63.3543 118.859C63.4544 118.675 63.6231 118.539 63.8236 118.48C64.0241 118.42 64.2399 118.443 64.4237 118.542L73.1131 123.282C73.2673 123.366 73.389 123.499 73.4591 123.66C73.5292 123.821 73.5437 124.001 73.5002 124.171C73.4568 124.341 73.3579 124.492 73.2191 124.6C73.0804 124.707 72.9098 124.766 72.7342 124.765Z" fill="#4357AD"/>
<path d="M164.624 50.1727H128.095C127.57 50.1721 127.066 49.9632 126.695 49.592C126.324 49.2207 126.115 48.7173 126.114 48.1922V1.9805C126.115 1.45542 126.324 0.95202 126.695 0.580733C127.066 0.209447 127.57 0.00059726 128.095 0H164.624C165.149 0.000600737 165.652 0.209452 166.024 0.580737C166.395 0.952023 166.604 1.45542 166.605 1.9805V48.1922C166.604 48.7173 166.395 49.2207 166.024 49.5919C165.652 49.9632 165.149 50.1721 164.624 50.1727ZM128.095 0.440112C127.686 0.44057 127.295 0.603008 127.006 0.891788C126.717 1.18057 126.555 1.5721 126.554 1.9805V48.1922C126.555 48.6006 126.717 48.9921 127.006 49.2809C127.295 49.5697 127.686 49.7321 128.095 49.7326H164.624C165.032 49.7321 165.424 49.5697 165.713 49.2809C166.002 48.9921 166.164 48.6006 166.164 48.1922V1.9805C166.164 1.5721 166.002 1.18057 165.713 0.891788C165.424 0.603008 165.032 0.440571 164.624 0.440112H128.095Z" fill="#3F3D56"/>
<path d="M143.321 22.2129H135.28C135.017 22.2126 134.766 22.1082 134.58 21.9225C134.394 21.7369 134.29 21.4852 134.29 21.2226V11.7339C134.29 11.4714 134.394 11.2197 134.58 11.034C134.766 10.8484 135.017 10.7439 135.28 10.7437H143.321C143.583 10.7439 143.835 10.8484 144.021 11.034C144.206 11.2197 144.311 11.4714 144.311 11.7339V21.2226C144.311 21.4852 144.206 21.7369 144.021 21.9225C143.835 22.1082 143.583 22.2126 143.321 22.2129Z" fill="#4357AD"/>
<path d="M158.945 26.614H150.904C150.641 26.6137 150.39 26.5093 150.204 26.3236C150.018 26.138 149.914 25.8863 149.914 25.6237V16.135C149.914 15.8725 150.018 15.6208 150.204 15.4351C150.39 15.2495 150.641 15.1451 150.904 15.1448H158.945C159.207 15.1451 159.459 15.2495 159.645 15.4351C159.83 15.6208 159.935 15.8725 159.935 16.135V25.6237C159.935 25.8863 159.83 26.138 159.645 26.3236C159.459 26.5093 159.207 26.6137 158.945 26.614Z" fill="#CCCCCC"/>
<path d="M146.401 40.0373H138.361C138.098 40.037 137.846 39.9326 137.661 39.747C137.475 39.5613 137.371 39.3096 137.37 39.0471V29.5584C137.371 29.2958 137.475 29.0441 137.661 28.8585C137.846 28.6728 138.098 28.5684 138.361 28.5681H146.401C146.664 28.5684 146.916 28.6728 147.101 28.8585C147.287 29.0441 147.391 29.2958 147.392 29.5584V39.0471C147.391 39.3096 147.287 39.5613 147.101 39.747C146.916 39.9326 146.664 40.037 146.401 40.0373Z" fill="#FF6584"/>
<path d="M116.974 37.6822C116.822 37.3215 116.568 37.0134 116.243 36.7958C115.917 36.5781 115.536 36.4606 115.144 36.4578H78.6146C78.0896 36.4581 77.5861 36.6668 77.2148 37.038C76.8435 37.4093 76.6348 37.9128 76.6345 38.4379V84.6496C76.6348 85.1746 76.8435 85.6781 77.2148 86.0494C77.5861 86.4207 78.0896 86.6294 78.6146 86.6297H115.144C115.669 86.629 116.172 86.4201 116.544 86.0489C116.915 85.6777 117.124 85.1745 117.124 84.6496V38.4379C117.125 38.1785 117.074 37.9215 116.974 37.6822ZM116.685 84.6496C116.684 85.058 116.522 85.4495 116.233 85.7382C115.944 86.027 115.553 86.1894 115.144 86.19H78.6146C78.2061 86.1899 77.8144 86.0276 77.5255 85.7387C77.2366 85.4498 77.0743 85.0581 77.0742 84.6496V38.4379C77.0748 38.0295 77.2372 37.638 77.526 37.3492C77.8148 37.0605 78.2063 36.898 78.6146 36.8975H115.144C115.452 36.8987 115.752 36.9915 116.007 37.1641C116.262 37.3366 116.459 37.5812 116.574 37.8665C116.596 37.9234 116.616 37.9814 116.632 38.0403C116.667 38.1699 116.685 38.3036 116.685 38.4379V84.6496Z" fill="#3F3D56"/>
<path d="M109.35 47.3684H98.3473C98.1138 47.3684 97.8899 47.2756 97.7249 47.1105C97.5598 46.9455 97.467 46.7216 97.467 46.4881C97.467 46.2547 97.5598 46.0308 97.7249 45.8657C97.8899 45.7006 98.1138 45.6079 98.3473 45.6079H109.35C109.584 45.6079 109.807 45.7006 109.972 45.8657C110.138 46.0308 110.23 46.2547 110.23 46.4881C110.23 46.7216 110.138 46.9455 109.972 47.1105C109.807 47.2756 109.584 47.3684 109.35 47.3684Z" fill="#3F3D56"/>
<path d="M109.35 51.9895H98.3473C98.1138 51.9895 97.8899 51.8967 97.7249 51.7316C97.5598 51.5666 97.467 51.3427 97.467 51.1092C97.467 50.8758 97.5598 50.6519 97.7249 50.4868C97.8899 50.3217 98.1138 50.229 98.3473 50.229H109.35C109.584 50.229 109.807 50.3217 109.972 50.4868C110.138 50.6519 110.23 50.8758 110.23 51.1092C110.23 51.3427 110.138 51.5666 109.972 51.7316C109.807 51.8967 109.584 51.9895 109.35 51.9895Z" fill="#3F3D56"/>
<path d="M92.7017 54.6208H84.6609C84.3984 54.6205 84.1467 54.5161 83.961 54.3305C83.7754 54.1448 83.6709 53.8931 83.6707 53.6306V44.1419C83.6709 43.8793 83.7754 43.6276 83.961 43.442C84.1467 43.2563 84.3984 43.1519 84.6609 43.1516H92.7017C92.9643 43.1519 93.216 43.2563 93.4016 43.442C93.5873 43.6276 93.6917 43.8793 93.692 44.1419V53.6306C93.6917 53.8931 93.5873 54.1448 93.4016 54.3305C93.216 54.5161 92.9643 54.6205 92.7017 54.6208Z" fill="#4357AD"/>
<path d="M109.274 61.4518H84.4074C84.2917 61.452 84.177 61.4294 84.0701 61.3853C83.9631 61.3411 83.8659 61.2763 83.784 61.1946C83.7021 61.1128 83.6371 61.0157 83.5928 60.9088C83.5485 60.8019 83.5256 60.6874 83.5256 60.5716C83.5256 60.4559 83.5485 60.3413 83.5928 60.2344C83.6371 60.1275 83.7021 60.0304 83.784 59.9487C83.8659 59.8669 83.9631 59.8021 84.0701 59.758C84.177 59.7138 84.2917 59.6912 84.4074 59.6914H109.274C109.507 59.6918 109.73 59.7847 109.895 59.9498C110.06 60.1148 110.152 60.3384 110.152 60.5716C110.152 60.8048 110.06 61.0285 109.895 61.1935C109.73 61.3585 109.507 61.4514 109.274 61.4518Z" fill="#CCCCCC"/>
<path d="M109.274 66.0732H84.4074C84.2917 66.0734 84.177 66.0508 84.0701 66.0066C83.9631 65.9625 83.8659 65.8977 83.784 65.8159C83.7021 65.7342 83.6371 65.6371 83.5928 65.5302C83.5485 65.4233 83.5256 65.3087 83.5256 65.193C83.5256 65.0772 83.5485 64.9627 83.5928 64.8558C83.6371 64.7489 83.7021 64.6518 83.784 64.57C83.8659 64.4883 83.9631 64.4235 84.0701 64.3793C84.177 64.3352 84.2917 64.3125 84.4074 64.3127H109.274C109.507 64.3127 109.731 64.4055 109.896 64.5706C110.061 64.7356 110.154 64.9595 110.154 65.193C110.154 65.4264 110.061 65.6503 109.896 65.8154C109.731 65.9805 109.507 66.0732 109.274 66.0732Z" fill="#CCCCCC"/>
<path d="M109.274 70.6943H84.4074C84.2917 70.6945 84.177 70.6719 84.0701 70.6277C83.9631 70.5836 83.8659 70.5188 83.784 70.437C83.7021 70.3553 83.6371 70.2582 83.5928 70.1513C83.5485 70.0444 83.5256 69.9298 83.5256 69.8141C83.5256 69.6983 83.5485 69.5838 83.5928 69.4769C83.6371 69.37 83.7021 69.2729 83.784 69.1911C83.8659 69.1094 83.9631 69.0446 84.0701 69.0004C84.177 68.9563 84.2917 68.9336 84.4074 68.9338H109.274C109.507 68.9338 109.731 69.0266 109.896 69.1916C110.061 69.3567 110.154 69.5806 110.154 69.8141C110.154 70.0475 110.061 70.2714 109.896 70.4365C109.731 70.6015 109.507 70.6943 109.274 70.6943Z" fill="#CCCCCC"/>
<path d="M109.274 75.3154H84.4074C84.2917 75.3156 84.177 75.293 84.0701 75.2488C83.9631 75.2047 83.8659 75.1399 83.784 75.0581C83.7021 74.9764 83.6371 74.8792 83.5928 74.7724C83.5485 74.6655 83.5256 74.5509 83.5256 74.4352C83.5256 74.3194 83.5485 74.2049 83.5928 74.098C83.6371 73.9911 83.7021 73.894 83.784 73.8122C83.8659 73.7304 83.9631 73.6656 84.0701 73.6215C84.177 73.5774 84.2917 73.5547 84.4074 73.5549H109.274C109.507 73.5549 109.731 73.6477 109.896 73.8127C110.061 73.9778 110.154 74.2017 110.154 74.4352C110.154 74.6686 110.061 74.8925 109.896 75.0576C109.731 75.2226 109.507 75.3154 109.274 75.3154Z" fill="#CCCCCC"/>
<path d="M109.274 79.9367H84.4074C84.2917 79.9369 84.177 79.9143 84.0701 79.8701C83.9631 79.826 83.8659 79.7612 83.784 79.6794C83.7021 79.5977 83.6371 79.5006 83.5928 79.3937C83.5485 79.2868 83.5256 79.1722 83.5256 79.0565C83.5256 78.9408 83.5485 78.8262 83.5928 78.7193C83.6371 78.6124 83.7021 78.5153 83.784 78.4335C83.8659 78.3518 83.9631 78.287 84.0701 78.2428C84.177 78.1987 84.2917 78.1761 84.4074 78.1763H109.274C109.507 78.1767 109.73 78.2696 109.895 78.4346C110.06 78.5996 110.152 78.8233 110.152 79.0565C110.152 79.2897 110.06 79.5133 109.895 79.6784C109.73 79.8434 109.507 79.9363 109.274 79.9367Z" fill="#CCCCCC"/>
<path d="M144.663 55.2195L123.839 75.0457L124.142 75.3644L144.967 55.5383L144.663 55.2195Z" fill="#E6E6E6"/>
<path d="M123.644 75.5339L126.287 75.5028L126.283 75.0623L124.112 75.0884L124.245 72.9224L123.805 72.8958L123.644 75.5339Z" fill="#E6E6E6"/>
<path d="M145.16 55.0493L145 57.6877L144.56 57.6614L144.692 55.4951L142.522 55.5212L142.518 55.0809L145.16 55.0493Z" fill="#E6E6E6"/>
<path d="M134.403 67.7126C135.739 67.7126 136.823 66.6288 136.823 65.292C136.823 63.9551 135.739 62.8713 134.403 62.8713C133.066 62.8713 131.982 63.9551 131.982 65.292C131.982 66.6288 133.066 67.7126 134.403 67.7126Z" fill="#E6E6E6"/>
<path d="M116.752 8.34964L95.9275 28.1758L96.231 28.4946L117.055 8.66843L116.752 8.34964Z" fill="#E6E6E6"/>
<path d="M95.7329 28.6638L98.3761 28.6327L98.3713 28.1922L96.2011 28.2183L96.3338 26.0522L95.8941 26.0256L95.7329 28.6638Z" fill="#E6E6E6"/>
<path d="M117.249 8.17944L117.088 10.8179L116.648 10.7915L116.781 8.62523L114.611 8.6513L114.606 8.21104L117.249 8.17944Z" fill="#E6E6E6"/>
<path d="M106.491 20.8427C107.828 20.8427 108.912 19.7589 108.912 18.4221C108.912 17.0852 107.828 16.0015 106.491 16.0015C105.155 16.0015 104.071 17.0852 104.071 18.4221C104.071 19.7589 105.155 20.8427 106.491 20.8427Z" fill="#E6E6E6"/>
<path d="M200.101 137.164H199.575V139.534H200.101V137.164Z" fill="#3F3D56"/>
</g>
<defs>
<clipPath id="clip0_17_649">
<rect width="235.368" height="170" fill="white"/>
</clipPath>
</defs>
</svg>
