<svg width="161" height="157" viewBox="0 0 161 157" fill="none" xmlns="http://www.w3.org/2000/svg">
<g clip-path="url(#clip0_49_54)">
<path d="M108.857 34.7828C108.842 39.7519 108.527 44.7148 107.914 49.6406C107.892 49.8136 107.869 49.9866 107.847 50.1595H64.2244C64.0954 49.9886 63.9685 49.8157 63.8454 49.6406C63.4351 49.0612 63.0503 48.4651 62.6966 47.8482C60.9969 44.8763 60.2076 41.3895 60.9676 38.9761L60.9812 38.9386C61.1452 38.4101 61.4055 37.9214 61.7471 37.5005C63.4976 35.3747 67.0612 35.7061 70.3024 37.3942C67.3856 34.0263 65.0547 29.7684 64.8594 25.9565C64.6679 22.2384 66.477 19.5707 68.4425 17.3011C68.5069 17.2261 68.5714 17.1531 68.6359 17.0802C68.6672 17.0426 68.7004 17.0072 68.7316 16.9697C70.2653 15.2399 72.0549 13.533 74.6593 13.7226C77.5155 13.931 80.6943 16.4633 82.9294 19.4227C85.1644 22.3801 86.657 25.746 88.1692 29.0306C89.6833 32.3131 91.3205 35.679 93.7373 38.478C90.4609 34.1075 87.8117 29.1286 86.8173 24.2767C85.8228 19.4248 86.6512 14.7543 89.5387 12.4492C90.4155 11.7708 91.4318 11.3263 92.5026 11.1529C92.6276 11.13 92.7545 11.1112 92.8835 11.0945C95.566 10.7527 98.776 11.7239 101.515 14.0748C104.532 16.6633 106.634 20.5148 107.689 24.1767C108.744 27.8385 108.873 31.369 108.857 34.7828Z" fill="#F2F2F2"/>
<path d="M80.3973 50.1595H79.5631C79.2974 49.9845 79.0303 49.8115 78.7621 49.6406C78.596 49.5301 78.428 49.4239 78.2599 49.3155C75.4837 47.5294 72.6905 45.8169 69.8805 44.1781C67.073 42.5379 64.2518 40.9741 61.4169 39.4867C61.3418 39.4523 61.2803 39.391 61.2432 39.3133C61.2061 39.2356 61.1957 39.1466 61.2137 39.0615C61.2167 39.0504 61.2213 39.0398 61.2275 39.0303C61.2665 38.9511 61.3544 38.9177 61.4834 38.9844C61.8311 39.1678 62.1808 39.3512 62.5286 39.5388C65.3713 41.0519 68.2022 42.6414 71.0214 44.3073C73.8387 45.9725 76.6403 47.7121 79.4263 49.526C79.4849 49.5635 79.5436 49.6031 79.6021 49.6406C79.8678 49.8136 80.1316 49.9866 80.3973 50.1595Z" fill="white"/>
<path d="M91.1525 50.1596H90.6367C90.5194 49.9866 90.4042 49.8136 90.287 49.6406C87.5323 45.5682 84.7782 41.4958 82.0247 37.4234C77.5155 30.7563 73.0076 24.0891 68.5011 17.422C68.4744 17.3861 68.4545 17.3451 68.4424 17.3011C68.4034 17.1531 68.505 17.0656 68.6359 17.0802C68.6911 17.0883 68.744 17.1088 68.7912 17.1404C68.8383 17.1721 68.8786 17.214 68.9094 17.2636C71.4375 21.0025 73.9649 24.7401 76.4918 28.4762C80.9775 35.11 85.4626 41.7431 89.9471 48.3755C90.2323 48.7965 90.5175 49.2196 90.8028 49.6406C90.92 49.8136 91.0372 49.9866 91.1525 50.1596Z" fill="white"/>
<path d="M102.627 46.8958C102.605 47.8233 102.552 48.7361 102.482 49.6406C102.468 49.8136 102.455 49.9866 102.441 50.1596H101.9C101.916 49.9866 101.931 49.8136 101.945 49.6406C102.052 48.3339 102.127 47.0125 102.13 45.6558C102.125 41.8942 101.762 38.143 101.046 34.4598C100.285 30.4939 99.2019 26.6062 97.8088 22.8407C96.3465 18.8693 94.5884 15.0292 92.5514 11.3572C92.5131 11.2973 92.4958 11.225 92.5025 11.1529C92.524 10.9883 92.7291 10.9382 92.8835 11.0946C92.9139 11.1252 92.9402 11.1603 92.9616 11.1988C93.2136 11.6552 93.4611 12.113 93.7041 12.5722C95.6668 16.2651 97.3503 20.1191 98.7388 24.0975C100.061 27.8757 101.073 31.7697 101.761 35.7353C102.406 39.4142 102.696 43.1539 102.627 46.8958Z" fill="white"/>
<path d="M140.294 49.6406H21.7036C21.2519 49.6411 20.8188 49.8327 20.4994 50.1734C20.18 50.5141 20.0004 50.9761 20 51.458V137.183C20.0004 137.664 20.18 138.126 20.4994 138.467C20.8188 138.808 21.2519 139 21.7036 139H140.294C140.541 139 140.784 138.943 141.008 138.833C141.231 138.723 141.43 138.562 141.59 138.362C141.603 138.347 141.616 138.33 141.627 138.312C141.729 138.18 141.811 138.031 141.871 137.872C141.957 137.654 142.001 137.419 142 137.183V51.458C142 50.9758 141.82 50.5135 141.5 50.1728C141.18 49.832 140.746 49.6406 140.294 49.6406ZM141.514 137.183C141.514 137.436 141.444 137.684 141.312 137.895C141.196 138.081 141.037 138.233 140.851 138.337C140.679 138.432 140.488 138.481 140.294 138.481H21.7036C21.3809 138.481 21.0715 138.344 20.8434 138.1C20.6152 137.857 20.4868 137.527 20.4864 137.183V51.458C20.4868 51.1138 20.6152 50.7837 20.8434 50.5403C21.0715 50.2969 21.3809 50.16 21.7036 50.1596H140.294C140.617 50.1595 140.927 50.2962 141.156 50.5397C141.384 50.7832 141.513 51.1134 141.514 51.458V137.183Z" fill="#3F3D56"/>
<path d="M141.756 56.9246H20.2428V57.4441H141.756V56.9246Z" fill="#3F3D56"/>
<path d="M24.3825 55.0957C25.1894 55.0957 25.8435 54.3979 25.8435 53.5371C25.8435 52.6763 25.1894 51.9785 24.3825 51.9785C23.5755 51.9785 22.9214 52.6763 22.9214 53.5371C22.9214 54.3979 23.5755 55.0957 24.3825 55.0957Z" fill="#3F3D56"/>
<path d="M28.5831 55.0957C29.3901 55.0957 30.0442 54.3979 30.0442 53.5371C30.0442 52.6763 29.3901 51.9785 28.5831 51.9785C27.7762 51.9785 27.1221 52.6763 27.1221 53.5371C27.1221 54.3979 27.7762 55.0957 28.5831 55.0957Z" fill="#3F3D56"/>
<path d="M32.7837 55.0957C33.5906 55.0957 34.2448 54.3979 34.2448 53.5371C34.2448 52.6763 33.5906 51.9785 32.7837 51.9785C31.9768 51.9785 31.3226 52.6763 31.3226 53.5371C31.3226 54.3979 31.9768 55.0957 32.7837 55.0957Z" fill="#3F3D56"/>
<path d="M74.1135 101.092C72.6523 100.077 71.9255 97.7188 72.2835 95.5622C72.6415 93.4056 73.9899 91.548 75.6063 90.7469C76.3926 90.3689 77.2546 90.2051 78.1149 90.2703C78.9752 90.3356 79.8069 90.6278 80.5351 91.1207C82.0174 92.0875 84.1138 92.6171 84.8177 94.5516C85.3586 96.0383 84.6725 99.057 83.9445 100.501C83.3152 101.749 82.1195 102.32 80.9961 102.568C79.7532 102.838 78.4704 102.821 77.2344 102.517C75.9985 102.212 74.8381 101.629 73.832 100.805L74.1135 101.092Z" fill="#2F2E41"/>
<path d="M73.3514 112.546L72.1831 114.695L72.0287 114.978L71.804 115.395H68.3596L68.5921 114.978L69.1939 113.897L70.5966 111.371L72.185 112.048L73.3514 112.546Z" fill="#FFB8B8"/>
<path d="M68.1018 115.395L67.4727 114.978L67.3945 114.926L71.343 107.25C71.5128 106.918 71.7427 106.625 72.0194 106.388C72.296 106.151 72.614 105.975 72.9548 105.871C73.3851 105.734 73.8409 105.716 74.2794 105.819C74.5353 105.876 74.7817 105.975 75.0101 106.11C75.1042 106.165 75.1949 106.227 75.2817 106.294C75.6156 106.543 75.89 106.873 76.0827 107.257C76.3122 107.705 76.4255 108.211 76.4111 108.722C76.3967 109.233 76.255 109.731 76.0007 110.164L74.4787 112.759L73.1775 114.978L72.9333 115.395H68.1018Z" fill="#2F2E41"/>
<path d="M78.2463 103.816C80.8964 103.816 83.0448 101.524 83.0448 98.6971C83.0448 95.87 80.8964 93.5782 78.2463 93.5782C75.5961 93.5782 73.4478 95.87 73.4478 98.6971C73.4478 101.524 75.5961 103.816 78.2463 103.816Z" fill="#FFB8B8"/>
<path d="M83.0634 115.395H72.2769L72.3257 115.247C72.2983 115.158 72.2729 115.068 72.2495 114.978C72.2241 114.885 72.2026 114.789 72.1831 114.695C72.0078 113.822 72.0085 112.92 72.185 112.048C72.781 108.926 75.1586 106.39 75.1586 106.39C75.1996 106.356 75.2407 106.325 75.2817 106.294C75.6354 106.017 76.0192 105.788 76.4246 105.61C78.1908 104.829 80.0429 105.143 81.2874 105.548C81.7208 105.687 82.1445 105.859 82.5554 106.062C82.6999 106.135 82.7781 106.181 82.7781 106.181L82.9012 110.185L83.0496 114.978L83.0634 115.395Z" fill="#4357AD"/>
<path d="M88.0532 114.978L87.2286 110.506L86.3964 105.996C86.3617 105.809 86.275 105.639 86.1478 105.506C86.0205 105.373 85.8586 105.285 85.6832 105.252L83.9405 104.931L82.319 104.633C82.1626 104.603 82.0014 104.619 81.853 104.679C81.7046 104.74 81.5745 104.843 81.4769 104.977C81.355 105.139 81.2882 105.34 81.2874 105.548C81.2874 105.676 81.312 105.803 81.3597 105.921C82.2056 108.026 82.2213 111.358 82.0064 114.978C81.9966 115.116 81.9888 115.255 81.979 115.395H88.1313L88.0532 114.978Z" fill="#2F2E41"/>
<path d="M76.4247 105.61C76.3888 105.458 76.3181 105.319 76.219 105.203C76.1199 105.088 75.9955 105.001 75.857 104.95C75.7184 104.898 75.5701 104.885 75.4254 104.91C75.2806 104.935 75.144 104.998 75.0278 105.093L74.2795 105.818L71.216 108.795C71.1205 108.886 71.0457 108.999 70.9972 109.126C70.6514 110.008 69.9774 111.748 69.1939 113.897C69.0669 114.247 68.936 114.607 68.8012 114.978C68.7543 115.116 68.7036 115.255 68.6527 115.395H73.7012C73.7422 115.255 73.7832 115.116 73.8242 114.978C74.0489 114.222 74.2677 113.48 74.4788 112.759C75.0961 110.664 75.6529 108.761 76.0828 107.257C76.2019 106.84 76.3107 106.455 76.409 106.102C76.4549 105.942 76.4603 105.773 76.4247 105.61Z" fill="#2F2E41"/>
<path d="M89.1863 115.395H89.5126L89.4677 115.278L89.3485 114.978L87.5101 110.324L87.2287 110.506L84.9702 111.963L86.1288 114.978L86.289 115.395H88.1313H89.1863Z" fill="#FFB8B8"/>
<path d="M87.3224 106.633C87.0737 105.939 86.5828 105.374 85.9525 105.056C85.3222 104.739 84.6013 104.694 83.9405 104.931C83.8561 104.961 83.7733 104.995 83.6924 105.035C83.2296 105.255 82.8351 105.612 82.5554 106.062C82.4412 106.242 82.3474 106.436 82.276 106.64C82.1492 106.993 82.0893 107.369 82.0997 107.748C82.1101 108.126 82.1906 108.498 82.3365 108.843L82.9012 110.185L84.9213 114.978L85.0971 115.395H89.1863L89.4676 115.278L90.1983 114.978L90.2999 114.937L87.3224 106.633Z" fill="#2F2E41"/>
<path d="M82.0151 92.818C82.1823 92.8715 82.3615 92.8646 82.5247 92.7986C82.688 92.7325 82.8262 92.6108 82.9181 92.4524C83.0051 92.291 83.0563 92.1104 83.0678 91.9246C83.0792 91.7388 83.0507 91.5527 82.9842 91.3805C82.848 91.0367 82.6334 90.7348 82.3599 90.5021C82.0493 90.2023 81.6712 89.9935 81.2624 89.896C81.0582 89.8491 80.8469 89.8496 80.6429 89.8975C80.4389 89.9453 80.2469 90.0394 80.0799 90.1733C79.9159 90.3117 79.7944 90.4991 79.7309 90.7115C79.6673 90.924 79.6646 91.1518 79.7232 91.3659C79.8474 91.7503 80.184 92.0078 80.52 92.1996C81.1869 92.5794 81.9222 92.8024 82.6766 92.8536L82.0151 92.818Z" fill="#2F2E41"/>
<path d="M82.9485 98.5442C82.1771 98.6576 82.2761 98.2388 81.9671 97.4762C81.6582 96.7136 81.2446 95.8084 80.4692 95.7312C79.8338 95.6679 79.3102 96.2098 78.7954 96.6122C77.8779 97.3294 76.6414 97.6805 75.5778 97.2502C74.5142 96.8199 73.7751 95.4677 74.1787 94.3332C74.3043 94.02 74.4889 93.7375 74.721 93.5035C74.9531 93.2694 75.2278 93.0887 75.528 92.9724C76.1303 92.744 76.7701 92.6492 77.408 92.6939C78.8267 92.7423 80.2182 93.1222 81.4842 93.807C82.358 94.2805 83.2085 94.9581 83.54 95.942C83.8715 96.9258 84.0896 98.3084 83.1418 98.5746L82.9485 98.5442Z" fill="#2F2E41"/>
<path d="M81.6207 90.1119C81.2393 89.4038 81.5541 88.4323 82.178 87.9592C82.8019 87.4861 83.6389 87.4397 84.3834 87.6294C85.1197 87.8273 85.7943 88.2282 86.3396 88.7919C86.8848 89.3557 87.2815 90.0624 87.4899 90.8413C87.8058 92.0796 87.618 93.4095 87.8856 94.6607C88.0282 95.3276 88.2973 95.9563 88.6763 96.5081C89.0553 97.0599 89.5362 97.5232 90.0893 97.8692C90.6425 98.2153 91.2562 98.4369 91.8926 98.5205C92.5291 98.604 93.1749 98.5476 93.7902 98.3549C94.5916 98.1038 95.406 97.4935 95.4848 96.6064C95.5678 97.6251 95.3501 98.6459 94.8621 99.5259C94.3742 100.406 93.6405 101.101 92.7637 101.514C91.7312 101.974 90.5794 102.004 89.461 101.973C88.7321 101.953 87.9866 101.906 87.3143 101.606C86.849 101.379 86.4308 101.056 86.0842 100.655C85.7375 100.254 85.4693 99.7835 85.2954 99.2706C84.9531 98.2396 84.8606 97.133 85.0267 96.0537C85.1367 95.2141 85.3556 94.3912 85.4168 93.546C85.4781 92.7008 85.3619 91.7984 84.8735 91.1297C84.385 90.461 83.452 90.1195 82.7575 90.5316C82.4784 90.6972 82.2532 90.9677 81.95 91.0746C81.6467 91.1814 81.217 90.9936 81.2446 90.6542L81.6207 90.1119Z" fill="#2F2E41"/>
<path d="M114.366 115.395L114.403 114.978L115.505 102.749C115.866 102.447 116.254 102.184 116.663 101.963C118.932 100.744 121.12 101.327 122.304 101.832C122.618 101.963 122.921 102.121 123.21 102.305L123.855 114.978L123.877 115.395H114.366Z" fill="#4357AD"/>
<path d="M119.526 99.4937C122.176 99.4937 124.325 97.2019 124.325 94.3748C124.325 91.5478 122.176 89.256 119.526 89.256C116.876 89.256 114.728 91.5478 114.728 94.3748C114.728 97.2019 116.876 99.4937 119.526 99.4937Z" fill="#FFB8B8"/>
<path d="M123.42 97.496C123.776 97.095 124.013 96.5899 124.1 96.0449C124.187 95.4999 124.12 94.9397 123.907 94.4355C123.695 93.9314 123.346 93.506 122.906 93.2136C122.467 92.9212 121.955 92.7749 121.437 92.7933C120.774 92.817 120.149 93.1067 119.515 93.3193C118.556 93.6675 117.532 93.7659 116.529 93.6061C115.521 93.4391 114.61 92.8658 113.986 92.0043C113.392 91.1339 113.207 89.9266 113.627 88.9475C114.111 87.8172 115.242 87.1944 116.306 86.6883C116.735 86.4591 117.193 86.2985 117.666 86.2115C117.903 86.1696 118.146 86.1802 118.378 86.2428C118.611 86.3055 118.83 86.4187 119.019 86.5754C119.318 86.8498 119.494 87.2621 119.819 87.4999C120.185 87.7675 120.661 87.7605 121.103 87.8076C122.098 87.9139 123.039 88.3408 123.801 89.0315C124.563 89.7222 125.11 90.644 125.369 91.6744C125.628 92.7047 125.586 93.7947 125.25 94.7994C124.914 95.8041 124.3 96.6759 123.488 97.2988L123.42 97.496Z" fill="#2F2E41"/>
<path d="M117.378 104.08L116.663 101.963L116.619 101.831C116.598 101.768 116.563 101.712 116.519 101.665C116.474 101.619 116.42 101.584 116.361 101.563C116.302 101.542 116.239 101.536 116.177 101.545C116.115 101.554 116.056 101.578 116.004 101.615L115.192 102.192C115.192 102.192 109.986 102.192 109.567 105.525C109.562 105.577 109.554 105.635 109.548 105.698C109.548 105.7 109.547 105.703 109.546 105.706C109.493 105.925 108.511 109.976 107.666 114.978C107.643 115.116 107.62 115.255 107.596 115.395H118.91C119.278 110.37 119.072 105.699 117.378 104.08Z" fill="#2F2E41"/>
<path d="M130.875 114.978C130.258 109.847 129.374 105.698 129.374 105.698C129.367 105.635 129.359 105.577 129.353 105.525C128.937 102.192 123.73 102.192 123.73 102.192L122.919 101.615C122.867 101.578 122.808 101.554 122.746 101.545C122.684 101.536 122.621 101.543 122.562 101.563C122.503 101.584 122.449 101.619 122.404 101.666C122.359 101.712 122.325 101.769 122.304 101.831L121.544 104.08C119.85 105.699 119.644 110.37 120.012 115.395L130.924 115.395C130.908 115.255 130.89 115.116 130.875 114.978Z" fill="#2F2E41"/>
<path d="M39.2297 103.295L38.0692 114.978L38.0281 115.395H34.8885C34.9257 115.26 34.9628 115.12 35.0019 114.978C35.8928 111.719 37.106 106.961 36.9751 105.7C36.77 103.732 38.206 103.076 38.206 103.076L38.2958 103.095L39.2297 103.295Z" fill="#4357AD"/>
<path d="M44.293 99.6883C46.9432 99.6883 49.0916 97.3965 49.0916 94.5694C49.0916 91.7423 46.9432 89.4506 44.293 89.4506C41.6429 89.4506 39.4945 91.7423 39.4945 94.5694C39.4945 97.3965 41.6429 99.6883 44.293 99.6883Z" fill="#A0616A"/>
<path d="M50.5046 112.915C50.2626 113.391 50.0644 113.891 49.9127 114.407C49.856 114.591 49.8013 114.782 49.7505 114.978C49.7134 115.114 49.6802 115.253 49.647 115.395H36.9907C37.0084 115.257 37.0239 115.118 37.0416 114.978C37.6883 109.528 38.2118 103.997 38.2958 103.094C38.3037 103.009 38.3076 102.965 38.3076 102.965C45.8919 98.7011 51.4268 104.278 51.4268 104.278C51.4268 104.278 51.4346 104.318 51.4463 104.395C51.5675 105.174 52.1848 109.726 50.5046 112.915Z" fill="#4357AD"/>
<path d="M49.9126 114.407L49.0686 112.477L49.2737 104.824L51.4463 104.395L51.5225 104.38C52.6454 105.077 53.5144 106.158 53.988 107.448C54.41 108.574 55.213 111.958 55.891 114.978C55.9223 115.118 55.9535 115.257 55.9848 115.395H50.3443L50.1626 114.978L49.9126 114.407Z" fill="#4357AD"/>
<path d="M57.6319 81.0068H29.8851C29.29 81.0076 28.7194 81.2601 28.2986 81.7091C27.8777 82.158 27.641 82.7666 27.6403 83.4015V113C27.641 113.635 27.8777 114.244 28.2986 114.693C28.7194 115.142 29.29 115.394 29.8851 115.395H57.6319C58.2271 115.395 58.7979 115.142 59.2187 114.693C59.6396 114.244 59.8763 113.635 59.8766 113V83.4015C59.8763 82.7665 59.6396 82.1577 59.2187 81.7087C58.7979 81.2597 58.2271 81.0073 57.6319 81.0068ZM59.4859 113C59.4855 113.525 59.29 114.028 58.9424 114.398C58.5948 114.769 58.1235 114.978 57.6319 114.978H29.8851C29.3936 114.977 28.9225 114.769 28.5749 114.398C28.2273 114.027 28.0318 113.525 28.031 113V83.4015C28.0318 82.8772 28.2273 82.3746 28.5749 82.0038C28.9225 81.6331 29.3936 81.4245 29.8851 81.4237H57.6319C58.1235 81.4241 58.5948 81.6326 58.9424 82.0035C59.29 82.3743 59.4855 82.8771 59.4859 83.4015V113ZM38.0692 114.978L38.0282 115.395H49.647C49.6802 115.253 49.7134 115.114 49.7505 114.978H38.0692Z" fill="#3F3D56"/>
<path d="M94.8717 81.0068H67.125C66.5298 81.0076 65.9593 81.2601 65.5384 81.7091C65.1176 82.158 64.8809 82.7666 64.8801 83.4015V113C64.8809 113.635 65.1176 114.244 65.5384 114.693C65.9593 115.142 66.5298 115.394 67.125 115.395H94.8717C95.467 115.395 96.0377 115.142 96.4586 114.693C96.8795 114.244 97.1161 113.635 97.1165 113V83.4015C97.1161 82.7665 96.8795 82.1577 96.4586 81.7087C96.0377 81.2597 95.467 81.0073 94.8717 81.0068ZM96.7258 113C96.7253 113.525 96.5299 114.028 96.1823 114.398C95.8347 114.769 95.3633 114.978 94.8717 114.978H67.125C66.6335 114.977 66.1623 114.769 65.8148 114.398C65.4672 114.027 65.2716 113.525 65.2709 113V83.4015C65.2716 82.8772 65.4672 82.3746 65.8148 82.0038C66.1623 81.6331 66.6335 81.4245 67.125 81.4237H94.8717C95.3633 81.4241 95.8347 81.6326 96.1823 82.0035C96.5299 82.3743 96.7253 82.8771 96.7258 83.4015V113ZM72.2496 114.978C72.2731 115.068 72.2985 115.157 72.3258 115.247L72.277 115.395H81.9791C81.9889 115.255 81.9967 115.116 82.0065 114.978H72.2496Z" fill="#3F3D56"/>
<path d="M132.114 81.0068H104.367C103.772 81.0072 103.201 81.2597 102.78 81.7087C102.359 82.1577 102.122 82.7665 102.122 83.4015V113C102.122 113.635 102.359 114.244 102.78 114.693C103.201 115.142 103.772 115.395 104.367 115.395H132.114C132.709 115.394 133.279 115.142 133.7 114.693C134.121 114.244 134.358 113.635 134.358 113V83.4015C134.358 82.7666 134.121 82.158 133.7 81.7091C133.279 81.2602 132.709 81.0076 132.114 81.0068ZM133.968 113C133.967 113.525 133.771 114.027 133.424 114.398C133.076 114.769 132.605 114.977 132.114 114.978H104.367C103.875 114.978 103.404 114.769 103.056 114.398C102.709 114.028 102.513 113.525 102.513 113V83.4015C102.513 82.8771 102.709 82.3743 103.056 82.0034C103.404 81.6326 103.875 81.4241 104.367 81.4237H132.114C132.605 81.4245 133.076 81.6331 133.424 82.0038C133.771 82.3746 133.967 82.8772 133.968 83.4015V113ZM118.94 114.978C118.93 115.116 118.92 115.255 118.91 115.395H127.329C127.344 115.258 127.362 115.118 127.378 114.978H118.94Z" fill="#3F3D56"/>
<path d="M113.236 127.483H48.7628C48.3483 127.483 47.9507 127.307 47.6576 126.995C47.3645 126.682 47.1998 126.258 47.1998 125.816C47.1998 125.374 47.3645 124.949 47.6576 124.637C47.9507 124.324 48.3483 124.148 48.7628 124.148H113.236C113.65 124.148 114.048 124.324 114.341 124.637C114.634 124.949 114.799 125.374 114.799 125.816C114.799 126.258 114.634 126.682 114.341 126.995C114.048 127.307 113.65 127.483 113.236 127.483Z" fill="#CCCCCC"/>
<path d="M95.1638 72.2534H66.8348C66.4203 72.2534 66.0227 72.0778 65.7296 71.7651C65.4365 71.4524 65.2719 71.0283 65.2719 70.5861C65.2719 70.1439 65.4365 69.7199 65.7296 69.4072C66.0227 69.0945 66.4203 68.9188 66.8348 68.9188H95.1638C95.5783 68.9188 95.9758 69.0945 96.269 69.4072C96.5621 69.7199 96.7267 70.1439 96.7267 70.5861C96.7267 71.0283 96.5621 71.4524 96.269 71.7651C95.9758 72.0778 95.5783 72.2534 95.1638 72.2534Z" fill="#4357AD"/>
<path d="M46.5883 99.0293C46.7508 99.2002 46.9657 99.3029 47.1934 99.3184C47.4211 99.334 47.6465 99.2614 47.8281 99.114C48.959 98.2197 49.9519 97.1066 50.5395 95.7488C51.2127 94.193 51.2878 92.2838 50.4761 90.8052C49.7899 89.5552 48.5782 88.7485 47.3705 88.0862C46.9016 87.8039 46.3965 87.5962 45.8712 87.4698C45.3404 87.3449 44.7848 87.4405 44.3177 87.7372C44.0892 87.89 43.9092 88.1128 43.8011 88.3764C43.6931 88.64 43.662 88.9323 43.712 89.215C43.1319 88.509 42.3889 87.9769 41.5566 87.6716C41.0326 87.4529 40.4587 87.4085 39.9106 87.5443C39.1442 87.7762 38.5847 88.5025 38.2787 89.2871C38.0312 89.8839 37.9458 90.5428 38.0321 91.1888C38.0775 91.5103 38.1856 91.8181 38.3495 92.0921C38.5135 92.3662 38.7295 92.6006 38.9836 92.78C39.6173 93.1982 40.4256 93.168 41.1533 92.9972C41.8809 92.8263 42.5853 92.5292 43.3271 92.454C44.0688 92.3789 44.8948 92.5762 45.3462 93.2085C45.6641 93.6538 45.7458 94.2357 45.8171 94.7902L46.1883 97.6744C46.2186 98.0917 46.3185 98.4998 46.4833 98.8796C46.5118 98.9343 46.5471 98.9846 46.5883 99.0293Z" fill="#2F2E41"/>
</g>
<g filter="url(#filter0_d_49_54)">
<rect x="4.5" y="0.5" width="152" height="148" rx="21.5" stroke="#FFCB77" shape-rendering="crispEdges"/>
</g>
<defs>
<filter id="filter0_d_49_54" x="0" y="0" width="161" height="157" filterUnits="userSpaceOnUse" color-interpolation-filters="sRGB">
<feFlood flood-opacity="0" result="BackgroundImageFix"/>
<feColorMatrix in="SourceAlpha" type="matrix" values="0 0 0 0 0 0 0 0 0 0 0 0 0 0 0 0 0 0 127 0" result="hardAlpha"/>
<feOffset dy="4"/>
<feGaussianBlur stdDeviation="2"/>
<feComposite in2="hardAlpha" operator="out"/>
<feColorMatrix type="matrix" values="0 0 0 0 0 0 0 0 0 0 0 0 0 0 0 0 0 0 0.25 0"/>
<feBlend mode="normal" in2="BackgroundImageFix" result="effect1_dropShadow_49_54"/>
<feBlend mode="normal" in="SourceGraphic" in2="effect1_dropShadow_49_54" result="shape"/>
</filter>
<clipPath id="clip0_49_54">
<rect width="122" height="128" fill="white" transform="translate(20 11)"/>
</clipPath>
</defs>
</svg>
