<svg width="231" height="165" viewBox="0 0 231 165" fill="none" xmlns="http://www.w3.org/2000/svg">
<g clip-path="url(#clip0_20_813)">
<path d="M91.0748 75.4398C91.4238 76.2274 91.477 77.1328 91.2229 77.9625C90.9688 78.7923 90.4277 79.4808 89.715 79.8811C89.5689 79.9597 89.4172 80.025 89.2613 80.0762L88.7526 91.7865L84.3457 88.1902L85.5044 77.6212C85.357 76.8994 85.4333 76.1447 85.7211 75.4753C86.0089 74.8059 86.4921 74.2597 87.0949 73.9222C87.4466 73.7312 87.8298 73.6189 88.2219 73.592C88.614 73.5651 89.007 73.6241 89.3779 73.7655C89.7487 73.9069 90.0899 74.1279 90.3814 74.4155C90.6728 74.703 90.9086 75.0513 91.0748 75.4398Z" fill="#9E616A"/>
<path d="M97.5156 159.814L100.364 159.186L99.5492 146.625L95.3445 147.551L97.5156 159.814Z" fill="#9E616A"/>
<path d="M96.605 158.936L102.215 157.699L102.216 157.699C102.686 157.594 103.17 157.594 103.64 157.7C104.11 157.805 104.556 158.012 104.951 158.31C105.76 158.916 106.316 159.848 106.497 160.901L106.52 161.03L97.3344 163.056L96.605 158.936Z" fill="#2F2E41"/>
<path d="M87.5276 161.654H90.4316L91.8131 149.155H87.5271L87.5276 161.654Z" fill="#9E616A"/>
<path d="M86.7871 160.596L92.5061 160.596C92.9868 160.596 93.463 160.701 93.9057 160.906C94.3485 161.11 94.7489 161.41 95.0832 161.787C95.7716 162.555 96.1552 163.588 96.1508 164.663V164.795L86.7873 164.796L86.7871 160.596Z" fill="#2F2E41"/>
<path d="M48.1437 134.833C44.9203 134.832 42.3085 131.914 42.3101 128.317C42.3102 127.45 42.4661 126.591 42.7688 125.789L43.6283 126.195C43.1197 127.526 43.1085 129.021 43.5971 130.361C44.0858 131.7 45.0354 132.778 46.2428 133.362C46.829 133.639 47.4598 133.785 48.0983 133.792C48.7368 133.799 49.3702 133.667 49.9614 133.403L50.3078 134.371C49.6209 134.677 48.8858 134.835 48.1437 134.833Z" fill="#3F3D56"/>
<path d="M57.1277 134.703H49.8938V132.62L55.7274 130.797L57.1277 134.703Z" fill="#3F3D56"/>
<path d="M54.5608 132.62H73.6952C73.7068 133.781 73.2954 134.9 72.5515 135.73C71.8076 136.56 70.7921 137.034 69.7283 137.047H58.5277C57.4639 137.034 56.4484 136.56 55.7045 135.73C54.9606 134.9 54.5492 133.781 54.5608 132.62Z" fill="#3F3D56"/>
<path d="M75.4996 135.254H54.265C53.5167 135.236 52.8046 134.899 52.2813 134.315C51.7579 133.731 51.4648 132.946 51.4648 132.129C51.4648 131.312 51.7579 130.528 52.2813 129.944C52.8046 129.36 53.5167 129.022 54.265 129.004H75.4996C76.2478 129.022 76.9599 129.36 77.4833 129.944C78.0066 130.528 78.2997 131.312 78.2997 132.129C78.2997 132.946 78.0066 133.731 77.4833 134.315C76.9599 134.899 76.2478 135.236 75.4996 135.254Z" fill="#CACACA"/>
<path d="M89.2117 86.9197L89.1711 89.0241L88.9912 98.4767C88.9858 99.1022 88.8676 99.7203 88.6433 100.296C88.419 100.871 88.093 101.393 87.6839 101.831C87.2748 102.269 86.7906 102.614 86.2591 102.848C85.7275 103.081 85.159 103.198 84.5861 103.192C83.5311 103.165 82.5225 102.713 81.7552 101.923L69.6854 89.2509C69.2075 88.7604 68.8322 88.1631 68.5853 87.4998C68.3383 86.8364 68.2255 86.1227 68.2545 85.4074C68.2835 84.692 68.4536 83.992 68.7533 83.355C69.053 82.7181 69.4751 82.1593 69.9908 81.7168C70.8593 80.9742 71.9543 80.6207 73.053 80.7281C74.1518 80.8356 75.1718 81.3959 75.9055 82.2952L83.8768 92.304L84.6425 86.0144L89.2117 86.9197Z" fill="#E6E6E6"/>
<path d="M92.176 156.511L86.4698 157.09L83.3573 131.908C73.0977 133.835 63.4186 134.452 55.0466 132.122C53.6722 131.725 52.4958 130.755 51.7717 129.419C51.0475 128.084 50.8338 126.491 51.1766 124.985C51.2092 124.838 51.2469 124.691 51.2897 124.547C52.2916 121.21 54.0569 117.634 56.1233 113.963L69.87 119.463L70.3888 121.778L85.0513 119.707C85.7597 119.614 86.4779 119.676 87.1644 119.888C87.8509 120.1 88.4923 120.458 89.0514 120.942C89.6105 121.425 90.0764 122.025 90.4222 122.706C90.768 123.388 90.9869 124.137 91.0663 124.911C91.086 125.084 91.0988 125.259 91.1049 125.434L92.176 156.511Z" fill="#2F2E41"/>
<path d="M100.851 151.208L95.145 151.787L84.7988 128.689C74.5391 130.615 64.86 131.232 56.488 128.902C55.1136 128.506 53.9372 127.535 53.2131 126.2C52.4889 124.864 52.2752 123.272 52.618 121.766C52.6506 121.618 52.6883 121.472 52.7311 121.327C53.733 117.99 55.4983 114.414 57.5647 110.744L73.5161 112.209L71.8302 118.558L86.4928 116.487C87.2012 116.395 87.9194 116.456 88.6059 116.668C89.2924 116.88 89.9337 117.238 90.4928 117.722C91.052 118.206 91.5179 118.806 91.8637 119.487C92.2095 120.168 92.4284 120.917 92.5077 121.691C92.5274 121.865 92.5403 122.039 92.5463 122.214L100.851 151.208Z" fill="#2F2E41"/>
<path d="M73.9649 77.0988C77.8326 77.0988 80.968 73.6 80.968 69.2839C80.968 64.9679 77.8326 61.4691 73.9649 61.4691C70.0973 61.4691 66.9619 64.9679 66.9619 69.2839C66.9619 73.6 70.0973 77.0988 73.9649 77.0988Z" fill="#9E616A"/>
<path d="M81.962 82.1429C81.8923 82.2823 81.8748 82.4457 81.9133 82.5988C81.9517 82.7519 82.0431 82.8828 82.1681 82.9639C82.3554 82.9892 86.756 86.0874 86.8816 85.7326C86.9511 85.7103 87.0158 85.673 87.0719 85.6229C87.128 85.5729 87.1744 85.5111 87.2083 85.4411L94.2904 70.9698C94.3293 70.8905 94.3517 70.8028 94.3561 70.7129C94.3605 70.6231 94.3468 70.5333 94.3159 70.4499C94.5117 70.077 89.4339 68.6469 89.2607 68.5351C89.1421 68.4955 89.0146 68.5023 88.9001 68.5542C88.7856 68.6061 88.6912 68.6999 88.6332 68.8195L81.962 82.1429Z" fill="#3F3D56"/>
<path d="M93.2731 70.6648C93.2731 70.6648 89.023 69.3587 89.0946 69.3031C88.9795 69.2981 88.7474 69.1167 88.6734 69.3035L82.3654 81.9949C82.0942 82.2717 86.5529 84.5315 86.5906 84.6657C86.9428 84.9077 93.1703 70.9735 93.3623 70.902C93.3811 70.8635 93.3853 70.8186 93.3741 70.7768C93.3629 70.735 93.3372 70.6996 93.3025 70.6781C93.2931 70.6725 93.2833 70.668 93.2731 70.6648Z" fill="#9DCDC0"/>
<path d="M77.8844 81.4104C77.9472 81.236 77.9886 81.0532 78.0074 80.8669C78.0658 80.3234 77.9249 79.7768 77.6154 79.3463C77.306 78.9157 76.8531 78.6362 76.3557 78.5687L73.0998 78.1697C72.8536 78.1422 72.6048 78.1682 72.3678 78.2461C72.1308 78.324 71.9102 78.4523 71.7188 78.6236C71.5274 78.7949 71.3689 79.0059 71.2524 79.2443C71.136 79.4828 71.0639 79.744 71.0404 80.013C70.9926 80.4899 71.0951 80.9704 71.3309 81.3753C69.6617 81.5755 68.0828 82.3049 66.789 83.4734C65.4952 84.6419 64.5431 86.1984 64.0503 87.9507C60.8336 94.4767 58.5181 102.025 57.4287 110.966L71.8828 118.458L77.3878 105.605L78.4957 103.708C78.7114 103.457 78.9177 103.207 79.113 102.952C80.2533 101.545 81.168 99.9372 81.8186 98.1975C82.2723 96.9506 82.5389 95.632 82.6082 94.2924C82.8288 90.0076 80.9877 85.7131 77.8844 81.4104Z" fill="#E4E4E4"/>
<path opacity="0.2" d="M81.8185 98.1976C81.1678 99.9373 80.2531 101.545 79.1129 102.953C78.9176 103.207 78.7113 103.457 78.4955 103.708L77.3876 105.605C73.304 102.264 69.9954 89.1078 69.9954 89.1078L74.6029 88.1294L81.8185 98.1976Z" fill="black"/>
<path d="M84.608 77.8288C84.2045 78.5853 84.0874 79.4839 84.2815 80.3332C84.4757 81.1825 84.9658 81.9157 85.6476 82.3766C85.7875 82.4679 85.9341 82.5464 86.0859 82.6113L85.7597 94.3297L90.4086 91.1352L90.0056 80.4969C90.2034 79.789 90.181 79.0295 89.9418 78.337C89.7026 77.6445 89.2601 77.0578 88.6833 76.6687C88.3474 76.4469 87.9741 76.3008 87.5856 76.2391C87.1971 76.1774 86.8012 76.2013 86.4213 76.3095C86.0413 76.4176 85.6851 76.6078 85.3737 76.8688C85.0623 77.1297 84.8019 77.4562 84.608 77.8288Z" fill="#9E616A"/>
<path d="M85.3511 89.9063L90.4635 90.6999L90.2437 102.256C90.2309 103.081 90.0253 103.888 89.6462 104.601C89.2672 105.314 88.7274 105.91 88.0781 106.331C87.2849 106.841 86.3615 107.055 85.447 106.942C84.5326 106.828 83.6766 106.394 83.0082 105.703L70.9385 93.0303C70.0893 92.1509 69.581 90.9498 69.5183 89.6738C69.4556 88.3979 69.8431 87.1443 70.6013 86.1707C70.9764 85.686 71.4369 85.2885 71.9555 85.0017C72.4741 84.715 73.0402 84.5449 73.6201 84.5015C74.2001 84.4582 74.7821 84.5425 75.3317 84.7494C75.8812 84.9563 76.3871 85.2816 76.8193 85.706C76.9386 85.8224 77.052 85.9457 77.1591 86.0755L85.1289 96.0836L85.3511 89.9063Z" fill="#E6E6E6"/>
<path d="M43.5309 128.744C42.3424 128.728 41.2082 128.198 40.377 127.271C39.5459 126.343 39.0857 125.094 39.0973 123.796V95.934C39.0843 95.2895 39.1893 94.6486 39.4063 94.049C39.6232 93.4494 39.9477 92.9031 40.3607 92.4422C40.7737 91.9814 41.2668 91.6152 41.8112 91.3652C42.3556 91.1152 42.9403 90.9865 43.5309 90.9865C44.1215 90.9865 44.7061 91.1152 45.2505 91.3652C45.7949 91.6152 46.288 91.9814 46.701 92.4422C47.114 92.9031 47.4385 93.4494 47.6555 94.049C47.8724 94.6486 47.9775 95.2895 47.9645 95.934V123.796C47.9761 125.094 47.5158 126.343 46.6847 127.271C45.8535 128.198 44.7194 128.728 43.5309 128.744Z" fill="#CACACA"/>
<path d="M71.362 161.41H65.995V135.905H64.1282V161.41H58.7612C57.9478 161.42 57.1712 161.782 56.6023 162.417C56.0335 163.052 55.7189 163.908 55.7277 164.795L74.3955 164.796C74.4043 163.908 74.0897 163.052 73.5209 162.417C72.952 161.782 72.1754 161.42 71.362 161.41Z" fill="#3F3D56"/>
<path d="M80.0553 60.4282C78.559 59.4672 76.7376 59.465 75.0113 59.489C73.7605 59.5064 72.5098 59.5238 71.259 59.5412C69.7408 59.5623 68.1382 59.6093 66.8449 60.4969C65.5516 61.3844 64.768 63.4299 65.6219 64.8309C63.0824 62.3685 59.279 61.9795 56.0957 63.1943C54.5379 63.7888 53.0637 64.7536 52.0056 66.1612C50.8563 67.6902 50.258 69.659 50.0174 71.6366C49.7769 73.6143 49.8708 75.6212 49.9652 77.6142C50.0245 78.8674 50.1547 80.2807 51.0383 81.0569C51.8535 81.7729 53.0482 81.6648 53.995 81.1915C55.646 80.3663 56.7874 78.6367 57.6406 76.8566C58.4939 75.0764 59.1443 73.1623 60.2067 71.5283C61.2691 69.8943 62.8718 68.5276 64.6808 68.5041C63.4507 70.4517 63.2261 73.2824 64.5118 75.1848C65.4363 76.5528 66.979 77.2631 68.506 77.4435C70.0328 77.6239 71.5696 77.3372 73.0835 77.0514C74.1086 76.858 75.3142 76.5025 75.6535 75.4058C75.9862 74.3305 75.2728 73.2445 74.9676 72.159C74.3786 70.0641 75.5871 67.5601 77.4788 66.9561L77.3246 66.7901C78.8909 67.0339 80.7671 66.8078 81.601 65.3082C82.5114 63.6712 81.5516 61.3892 80.0553 60.4282Z" fill="#2F2E41"/>
<path d="M230.804 21.4662H96.0335C95.9811 21.4651 95.9313 21.4416 95.8946 21.4008C95.8579 21.36 95.8374 21.3051 95.8374 21.2479C95.8374 21.1908 95.8579 21.1359 95.8946 21.0951C95.9313 21.0543 95.9811 21.0308 96.0335 21.0297H230.804C230.857 21.0308 230.907 21.0543 230.943 21.0951C230.98 21.1359 231.001 21.1908 231.001 21.2479C231.001 21.3051 230.98 21.36 230.943 21.4008C230.907 21.4416 230.857 21.4651 230.804 21.4662Z" fill="white"/>
<path d="M100.436 18.4104C101.624 18.4104 102.588 17.3354 102.588 16.0093C102.588 14.6833 101.624 13.6083 100.436 13.6083C99.2477 13.6083 98.2844 14.6833 98.2844 16.0093C98.2844 17.3354 99.2477 18.4104 100.436 18.4104Z" fill="#3F3D56"/>
<path d="M107.869 18.4104C109.057 18.4104 110.021 17.3354 110.021 16.0093C110.021 14.6833 109.057 13.6083 107.869 13.6083C106.681 13.6083 105.717 14.6833 105.717 16.0093C105.717 17.3354 106.681 18.4104 107.869 18.4104Z" fill="#3F3D56"/>
<path d="M115.302 18.4104C116.49 18.4104 117.454 17.3354 117.454 16.0093C117.454 14.6833 116.49 13.6083 115.302 13.6083C114.114 13.6083 113.15 14.6833 113.15 16.0093C113.15 17.3354 114.114 18.4104 115.302 18.4104Z" fill="#3F3D56"/>
<path d="M226.351 15.0768H221.07C220.965 15.0743 220.866 15.0272 220.793 14.9456C220.72 14.864 220.679 14.7544 220.679 14.6403C220.679 14.5261 220.72 14.4165 220.793 14.335C220.866 14.2534 220.965 14.2063 221.07 14.2037H226.351C226.456 14.2063 226.555 14.2534 226.628 14.335C226.701 14.4165 226.742 14.5261 226.742 14.6403C226.742 14.7544 226.701 14.864 226.628 14.9456C226.555 15.0272 226.456 15.0743 226.351 15.0768Z" fill="#3F3D56"/>
<path d="M226.351 16.7139H221.07C220.965 16.7114 220.866 16.6643 220.793 16.5827C220.72 16.5011 220.679 16.3915 220.679 16.2774C220.679 16.1632 220.72 16.0536 220.793 15.972C220.866 15.8904 220.965 15.8433 221.07 15.8408H226.351C226.456 15.8433 226.555 15.8904 226.628 15.972C226.701 16.0536 226.742 16.1632 226.742 16.2774C226.742 16.3915 226.701 16.5011 226.628 16.5827C226.555 16.6643 226.456 16.7114 226.351 16.7139Z" fill="#3F3D56"/>
<path d="M226.351 18.351H221.07C220.965 18.3485 220.866 18.3014 220.793 18.2198C220.72 18.1382 220.679 18.0286 220.679 17.9145C220.679 17.8003 220.72 17.6907 220.793 17.6091C220.866 17.5275 220.965 17.4804 221.07 17.4779H226.351C226.456 17.4804 226.555 17.5275 226.628 17.6091C226.701 17.6907 226.742 17.8003 226.742 17.9145C226.742 18.0286 226.701 18.1382 226.628 18.2198C226.555 18.3014 226.456 18.3485 226.351 18.351Z" fill="#3F3D56"/>
<path d="M204.395 76.7686H117.249C116.816 76.7628 116.403 76.5699 116.101 76.2323C115.798 75.8947 115.631 75.4399 115.635 74.9677V32.2902C115.631 31.8179 115.798 31.3631 116.101 31.0255C116.403 30.6879 116.816 30.4951 117.249 30.4893H204.395C204.828 30.4951 205.241 30.6879 205.543 31.0255C205.846 31.3631 206.013 31.8179 206.009 32.2902V74.9677C206.013 75.4399 205.846 75.8947 205.543 76.2323C205.241 76.5699 204.828 76.7627 204.395 76.7686Z" fill="#9DCDC0"/>
<path d="M134.996 45.3647C134.704 45.3718 134.425 45.5037 134.22 45.7322C134.015 45.9607 133.901 46.2677 133.901 46.5874C133.901 46.9071 134.015 47.2141 134.22 47.4426C134.425 47.6711 134.704 47.803 134.996 47.81H186.648C186.94 47.8024 187.218 47.6703 187.423 47.4418C187.627 47.2133 187.741 46.9067 187.741 46.5874C187.741 46.2681 187.627 45.9614 187.423 45.733C187.218 45.5045 186.94 45.3724 186.648 45.3648L134.996 45.3647Z" fill="white"/>
<path d="M134.996 52.4492C134.704 52.4568 134.425 52.589 134.221 52.8174C134.017 53.0459 133.902 53.3526 133.902 53.6719C133.902 53.9912 134.017 54.2978 134.221 54.5263C134.425 54.7547 134.704 54.8869 134.996 54.8945H186.648C186.94 54.8869 187.218 54.7547 187.422 54.5263C187.627 54.2978 187.741 53.9912 187.741 53.6719C187.741 53.3526 187.627 53.0459 187.422 52.8174C187.218 52.589 186.94 52.4568 186.648 52.4492H134.996Z" fill="white"/>
<path d="M134.996 59.4478C134.704 59.4548 134.425 59.5867 134.22 59.8152C134.015 60.0437 133.901 60.3507 133.901 60.6704C133.901 60.9901 134.015 61.2971 134.22 61.5256C134.425 61.7541 134.704 61.886 134.996 61.893H157.222C157.515 61.886 157.794 61.7541 157.998 61.5256C158.203 61.2971 158.318 60.9901 158.318 60.6704C158.318 60.3507 158.203 60.0437 157.998 59.8152C157.794 59.5867 157.515 59.4548 157.222 59.4478H134.996Z" fill="white"/>
<path fill-rule="evenodd" clip-rule="evenodd" d="M200.617 69.5507C199.814 70.2575 199.942 71.6483 200.184 72.6588C200.54 74.1466 201.249 75.524 202.057 76.7112C203.492 78.8174 205.928 81.1824 208.173 79.3333C210.173 77.6866 211.434 74.3637 211.869 71.5648C212.004 70.6999 212.183 69.4111 211.551 68.7608C210.616 67.7996 208.968 67.9745 207.839 68.0982C205.25 70.1429 207.125 70.1429 205.1 68.7608C203.394 68.4589 202.04 68.298 200.617 69.5507Z" fill="#FE2781"/>
</g>
<defs>
<clipPath id="clip0_20_813">
<rect width="231" height="165" fill="white"/>
</clipPath>
</defs>
</svg>
