<svg width="161" height="157" viewBox="0 0 161 157" fill="none" xmlns="http://www.w3.org/2000/svg">
<g filter="url(#filter0_d_49_53)">
<rect x="4.5" y="0.5" width="152" height="148" rx="21.5" stroke="#FFCB77" shape-rendering="crispEdges"/>
</g>
<g clip-path="url(#clip0_49_53)">
<path d="M12 138.66C12 138.819 12.1067 138.946 12.2395 138.946H149.76C149.893 138.946 150 138.819 150 138.66C150 138.501 149.893 138.374 149.76 138.374H12.2395C12.1067 138.374 12 138.501 12 138.66Z" fill="#3F3D56"/>
<path d="M69.0573 138.874H26.0716C24.3549 138.874 22.9584 137.206 22.9584 135.156V39.7179C22.9584 37.6678 24.3549 36 26.0716 36H69.0573C70.774 36 72.1705 37.6678 72.1705 39.7179V135.156C72.1705 137.206 70.774 138.874 69.0573 138.874ZM26.0716 36.4807C24.5769 36.4807 23.3609 37.933 23.3609 39.7179V135.156C23.3609 136.941 24.5769 138.393 26.0716 138.393H69.0573C70.552 138.393 71.768 136.941 71.768 135.156V39.7179C71.768 37.933 70.552 36.4807 69.0573 36.4807H26.0716Z" fill="#3F3D56"/>
<path d="M146.149 84.5303C145.979 84.1881 145.244 84.5545 145.108 84.244C144.974 83.9345 145.657 83.4631 146.047 82.386C146.117 82.1918 146.561 80.9678 146.232 80.5902C145.61 79.8743 142.763 82.8285 141.766 81.8618C141.548 81.6496 141.395 81.226 140.733 80.5384C140.47 80.2648 140.31 80.1413 140.156 80.1873C139.938 80.2525 139.92 80.6019 139.686 81.2891C139.334 82.3195 139.126 82.2573 138.922 83.0795C138.769 83.6898 138.804 84.0447 138.625 84.1138C138.372 84.2116 138.139 83.5642 137.818 83.6222C137.49 83.6814 137.292 84.4351 137.23 84.9995C137.113 86.0585 137.438 86.7573 137.619 87.4922C137.815 88.2907 137.931 89.5051 137.478 91.2244L132.995 106.311C133.985 103.215 136.851 94.729 138.055 91.5755C138.403 90.6651 138.786 89.7418 139.575 89.3773C140.334 89.0265 141.376 89.2359 142.704 88.8537C142.86 88.809 143.29 88.6782 143.344 88.3757C143.389 88.1257 143.136 87.9861 143.175 87.7519C143.227 87.4377 143.725 87.4339 144.337 87.0714C144.769 86.8158 145.038 86.5119 145.269 86.2505C145.339 86.1717 146.375 84.9858 146.149 84.5303Z" fill="#F2F2F2"/>
<path d="M128.509 92.4724C128.319 92.4733 128.258 93.0099 128.091 92.9995C127.925 92.9891 127.928 92.4528 127.598 91.9133C127.539 91.816 127.164 91.2029 126.914 91.2863C126.44 91.4445 126.833 93.9659 126.148 94.2711C125.997 94.3381 125.779 94.3054 125.306 94.4949C125.117 94.5704 125.021 94.628 124.995 94.7316C124.959 94.8786 125.097 94.9896 125.312 95.3253C125.634 95.8287 125.549 95.9326 125.827 96.2899C126.034 96.5552 126.19 96.6372 126.167 96.762C126.134 96.9387 125.801 96.8885 125.732 97.0934C125.662 97.3024 125.914 97.6359 126.128 97.8354C126.53 98.2098 126.911 98.2205 127.265 98.3267C127.65 98.4422 128.182 98.7243 128.758 99.4859L133.665 106.467C132.678 104.993 130.017 100.865 129.069 99.2492C128.795 98.7828 128.526 98.2914 128.604 97.7242C128.679 97.1782 129.066 96.6277 129.292 95.7386C129.318 95.6348 129.389 95.3447 129.28 95.2256C129.19 95.1272 129.06 95.2354 128.975 95.145C128.861 95.0238 129.003 94.7307 129.031 94.2673C129.05 93.9406 129.003 93.6953 128.962 93.4844C128.95 93.4208 128.761 92.4712 128.509 92.4724Z" fill="#F2F2F2"/>
<path d="M132.292 93.4867L132.178 92.2686L132.23 92.1762C132.472 91.7492 132.595 91.3321 132.597 90.9363C132.597 90.8733 132.594 90.8104 132.592 90.7463C132.582 90.4922 132.57 90.1763 132.708 89.8081C132.785 89.6028 133.002 89.1275 133.329 89.1863C133.417 89.201 133.483 89.2493 133.534 89.3057C133.541 89.2916 133.549 89.2775 133.557 89.2622C133.659 89.0769 133.739 88.9975 133.817 88.9211C133.876 88.8622 133.938 88.8017 134.034 88.6581C134.077 88.5952 134.11 88.5399 134.138 88.4934C134.222 88.3528 134.332 88.1852 134.527 88.1881C134.735 88.1999 134.844 88.4052 134.916 88.5411C135.045 88.7834 135.103 88.9581 135.142 89.074C135.156 89.1163 135.172 89.164 135.18 89.1787C135.247 89.2963 135.791 89.1863 135.996 89.1463C136.457 89.0546 136.856 88.9752 137.02 89.3222C137.138 89.5704 137.05 89.8987 136.752 90.3239C136.66 90.4563 136.561 90.5569 136.473 90.6357C136.546 90.6875 136.611 90.7669 136.637 90.8916C136.699 91.1868 136.487 91.4827 136.006 91.7721C135.886 91.8445 135.725 91.9409 135.5 91.9874C135.394 92.0092 135.298 92.0145 135.217 92.0174C135.215 92.0739 135.204 92.135 135.175 92.198C135.091 92.3833 134.915 92.4715 134.65 92.4503C134.358 92.4321 134.118 92.3656 133.906 92.3074C133.721 92.2568 133.562 92.2139 133.437 92.2239C133.205 92.2462 133.026 92.468 132.816 92.7556L132.292 93.4867Z" fill="#F2F2F2"/>
<path d="M132.823 86.2337L131.865 86.6747L131.777 86.6378C131.37 86.467 131.001 86.4305 130.68 86.5293C130.629 86.5449 130.578 86.5637 130.527 86.5828C130.324 86.6587 130.071 86.753 129.738 86.6871C129.552 86.6499 129.112 86.5195 129.077 86.1273C129.066 86.0221 129.088 85.933 129.121 85.8604C129.108 85.8554 129.095 85.8502 129.08 85.8447C128.904 85.7742 128.82 85.7013 128.738 85.6311C128.675 85.5771 128.611 85.5214 128.47 85.4463C128.408 85.4133 128.355 85.3892 128.31 85.3688C128.175 85.3069 128.011 85.222 127.964 84.9965C127.921 84.7534 128.06 84.5756 128.151 84.4578C128.315 84.2475 128.442 84.1358 128.526 84.0617C128.556 84.0348 128.591 84.0042 128.601 83.9911C128.679 83.8839 128.452 83.2828 128.368 83.0559C128.176 82.5469 128.011 82.1065 128.25 81.8287C128.422 81.6298 128.71 81.6475 129.13 81.8839C129.26 81.9575 129.367 82.0461 129.453 82.1274C129.476 82.0303 129.524 81.9351 129.619 81.873C129.842 81.7264 130.136 81.8969 130.492 82.3791C130.581 82.4987 130.7 82.66 130.795 82.9085C130.839 83.0256 130.868 83.1347 130.891 83.2284C130.937 83.216 130.989 83.2133 131.048 83.2306C131.219 83.2812 131.335 83.462 131.385 83.7734C131.444 84.1149 131.451 84.4091 131.458 84.6686C131.464 84.895 131.47 85.09 131.509 85.232C131.586 85.4943 131.811 85.6446 132.098 85.814L132.823 86.2337Z" fill="#F2F2F2"/>
<path d="M132.292 82.6448L132.178 81.4266L132.23 81.3343C132.472 80.9073 132.595 80.4902 132.597 80.0943C132.597 80.0314 132.594 79.9685 132.592 79.9044C132.582 79.6502 132.57 79.3344 132.708 78.9662C132.785 78.7609 133.002 78.2856 133.329 78.3444C133.417 78.3591 133.483 78.4074 133.534 78.4638C133.541 78.4497 133.549 78.4356 133.557 78.4203C133.659 78.235 133.739 78.1556 133.817 78.0791C133.876 78.0203 133.938 77.9597 134.034 77.8162C134.077 77.7533 134.11 77.698 134.138 77.6515C134.222 77.5109 134.332 77.3433 134.527 77.3462C134.735 77.358 134.844 77.5633 134.916 77.6992C135.045 77.9415 135.103 78.1162 135.142 78.2321C135.156 78.2744 135.172 78.3221 135.18 78.3368C135.247 78.4544 135.791 78.3444 135.996 78.3044C136.457 78.2127 136.856 78.1333 137.02 78.4803C137.138 78.7285 137.05 79.0567 136.752 79.482C136.66 79.6144 136.561 79.7149 136.473 79.7938C136.546 79.8455 136.611 79.9249 136.637 80.0496C136.699 80.3449 136.487 80.6408 136.006 80.9302C135.886 81.0025 135.725 81.099 135.5 81.1455C135.394 81.1673 135.298 81.1725 135.217 81.1755C135.215 81.232 135.204 81.2931 135.175 81.3561C135.091 81.5414 134.915 81.6296 134.65 81.6084C134.358 81.5902 134.118 81.5237 133.906 81.4655C133.721 81.4149 133.562 81.3719 133.437 81.3819C133.205 81.4043 133.026 81.6261 132.816 81.9137L132.292 82.6448Z" fill="#F2F2F2"/>
<path d="M133.336 106.291L133.122 106.131L132.873 106.165C132.869 106.137 132.856 106.074 132.835 105.974C132.724 105.43 132.384 103.772 132.1 101.162C131.902 99.3394 131.79 97.466 131.767 95.5925C131.744 93.7161 131.818 92.2956 131.878 91.1539C131.923 90.2928 131.977 89.4728 132.031 88.674C132.174 86.54 132.309 84.5242 132.208 82.2925C132.186 81.7943 132.14 80.7573 131.632 79.6538C131.338 79.0138 130.933 78.4456 130.427 77.9656L130.742 77.4939C131.299 78.0245 131.748 78.6539 132.075 79.3644C132.637 80.5879 132.688 81.7178 132.712 82.2608C132.814 84.5318 132.678 86.567 132.534 88.7217C132.48 89.5175 132.426 90.3339 132.381 91.1915C132.322 92.3227 132.248 93.7308 132.271 95.5831C132.294 97.4342 132.405 99.2847 132.6 101.084C132.88 103.662 133.215 105.294 133.325 105.831C133.384 106.117 133.396 106.177 133.336 106.291Z" fill="#F2F2F2"/>
<path d="M129.502 78.9227C129.482 78.9227 129.461 78.9221 129.44 78.9203C129.01 78.8927 128.612 78.5856 128.257 78.008C128.091 77.7363 128.005 77.4263 127.836 76.8081C127.809 76.7128 127.681 76.2293 127.603 75.564C127.552 75.1293 127.559 74.9476 127.631 74.787C127.711 74.6082 127.84 74.4835 127.986 74.3993C127.98 74.3417 127.985 74.2823 128.006 74.2217C128.092 73.9705 128.32 74.0035 128.444 74.0194C128.507 74.0288 128.585 74.0411 128.669 74.0358C128.801 74.0282 128.873 73.9811 128.98 73.9105C129.084 73.8429 129.212 73.7588 129.402 73.7123C129.778 73.6188 130.092 73.7458 130.196 73.7876C130.741 74.0046 131.01 74.5111 131.321 75.0975C131.384 75.2152 131.597 75.6434 131.737 76.2304C131.839 76.6539 131.824 76.8422 131.794 76.9822C131.732 77.2698 131.585 77.4345 131.213 77.798C130.825 78.1786 130.629 78.3692 130.462 78.485C130.072 78.7538 129.827 78.9227 129.502 78.9227Z" fill="#F2F2F2"/>
<path d="M72.2904 78.4248H22.8385V93.7646H72.2904V78.4248Z" fill="#4357AD"/>
<path d="M54.3079 36.2404H41.4633V138.634H54.3079V36.2404Z" fill="#4357AD"/>
<path opacity="0.2" d="M54.7827 92.6098C54.8737 92.1873 54.9279 91.7481 54.9411 91.2955L71.006 73.8229L57.198 65.7695L51.1124 85.1502C50.6964 85.0204 50.2623 84.9443 49.8123 84.9443C49.5734 84.9443 49.3401 84.9706 49.1099 85.0082L43.0689 65.7695L29.2609 73.8229L44.6944 90.6088C44.6844 90.7649 44.6744 90.9211 44.6744 91.0802C44.6744 91.6093 44.7365 92.12 44.8419 92.6098C35.3816 96.1407 31.5087 106.804 31.5087 106.804L43.39 118.308C42.6814 109.846 47.0088 101.182 49.3483 97.1882C49.5014 97.2046 49.6556 97.2161 49.8123 97.2161C49.969 97.2161 50.1232 97.2046 50.2763 97.1882C52.6158 101.182 56.9433 109.846 56.2346 118.308L68.1159 106.804C68.1159 106.804 64.243 96.1407 54.7827 92.6098Z" fill="black"/>
<path d="M56.5272 114.163C56.3887 114.163 56.249 114.127 56.1171 114.053C55.7836 113.867 55.5729 113.48 55.5671 113.042C55.4697 105.622 51.9274 98.3408 49.8244 94.6607C49.684 94.415 49.4415 94.2683 49.1755 94.2683H49.1744C48.8987 94.2683 48.6562 94.415 48.5157 94.6607C46.4129 98.3408 42.8705 105.622 42.7731 113.042C42.7673 113.479 42.5566 113.867 42.223 114.053C41.8861 114.242 41.4976 114.185 41.2091 113.905L31.3337 104.343C30.9812 104.001 30.8777 103.403 31.0877 102.92C32.086 100.624 35.9291 92.8864 43.4715 89.7045C43.8081 89.5625 44.0125 89.1623 43.9684 88.7311C43.944 88.4902 43.9316 88.2485 43.9316 88.0123C43.9321 87.7307 43.842 87.4748 43.6843 87.3035L29.4868 71.8618C29.2514 71.6057 29.1378 71.228 29.1828 70.8515C29.2279 70.475 29.4257 70.1504 29.7119 69.9835L41.5326 63.0893C41.7751 62.9478 42.058 62.9352 42.3091 63.0542C42.56 63.1735 42.7582 63.4151 42.853 63.717L48.3339 81.1719C48.447 81.5322 48.7371 81.7674 49.0665 81.7576C49.3148 81.7508 49.5667 81.7679 49.8177 81.8069C50.1721 81.8634 50.5065 81.6247 50.6306 81.229L56.1294 63.717C56.2243 63.4151 56.4225 63.1735 56.6734 63.0542C56.9243 62.9354 57.2075 62.9479 57.4498 63.0893L69.2704 69.9835C69.5566 70.1504 69.7546 70.475 69.7996 70.8517C69.8447 71.228 69.731 71.6057 69.4955 71.8618L54.6211 88.0398C54.4825 88.1905 54.3962 88.3963 54.3781 88.6191C54.3742 88.6672 54.3699 88.7153 54.3651 88.7632C54.3243 89.1684 54.5351 89.5639 54.8663 89.7035C62.4103 92.8848 66.2541 100.624 67.2525 102.92C67.4626 103.403 67.3591 104.001 67.0066 104.343L57.131 113.905C56.9555 114.075 56.7427 114.163 56.5272 114.163Z" fill="#4357AD"/>
<path d="M139.934 138.968H98.4612C96.7446 138.968 95.3479 137.3 95.3479 135.25V110.049C95.3479 107.999 96.7446 106.331 98.4612 106.331H139.934C141.651 106.331 143.047 107.999 143.047 110.049V135.25C143.047 137.3 141.651 138.968 139.934 138.968ZM98.4612 106.812C96.9665 106.812 95.7504 108.264 95.7504 110.049V135.25C95.7504 137.035 96.9665 138.487 98.4612 138.487H139.934C141.429 138.487 142.645 137.035 142.645 135.25V110.049C142.645 108.264 141.429 106.812 139.934 106.812H98.4612Z" fill="#3F3D56"/>
<path d="M123.36 106.36H116.275V138.939H123.36V106.36Z" fill="#4357AD"/>
<path d="M142.846 118.63H95.5491V127.092H142.846V118.63Z" fill="#4357AD"/>
<path opacity="0.2" d="M117.814 128.126C118.01 128.186 118.212 128.222 118.422 128.23L126.492 138.814L130.212 129.717L121.26 125.708C121.32 125.434 121.355 125.148 121.355 124.852C121.355 124.694 121.343 124.541 121.326 124.389L130.212 120.409L126.492 111.312L118.739 121.48C118.667 121.473 118.595 121.467 118.521 121.467C118.277 121.467 118.041 121.508 117.814 121.577C116.184 115.345 111.258 112.793 111.258 112.793L105.944 120.621C109.853 120.154 113.855 123.005 115.7 124.546C115.692 124.647 115.687 124.748 115.687 124.852C115.687 124.955 115.692 125.056 115.7 125.157C113.855 126.699 109.853 129.549 105.944 129.083L111.258 136.91C111.258 136.91 116.183 134.359 117.814 128.126Z" fill="black"/>
<path d="M126.783 137.359C126.623 137.359 126.469 137.279 126.359 137.135L118.886 127.335C118.824 127.254 118.734 127.203 118.633 127.19L118.601 127.187C118.418 127.162 118.252 127.28 118.194 127.474C116.719 132.468 113.128 135.01 112.063 135.67C111.823 135.82 111.524 135.744 111.354 135.492L106.936 128.985C106.796 128.779 106.768 128.501 106.862 128.26C106.955 128.022 107.149 127.872 107.367 127.868C110.782 127.805 114.138 125.477 115.834 124.095C115.936 124.012 115.997 123.868 115.997 123.711C115.997 123.547 115.936 123.403 115.834 123.32C114.138 121.938 110.783 119.61 107.367 119.547C107.148 119.543 106.955 119.393 106.862 119.155C106.768 118.914 106.796 118.636 106.936 118.43L111.354 111.923C111.525 111.671 111.823 111.596 112.063 111.744C113.128 112.405 116.718 114.946 118.194 119.939C118.251 120.133 118.414 120.253 118.579 120.229C118.758 120.202 118.936 120.196 119.108 120.212L126.359 110.703C126.487 110.535 126.677 110.454 126.865 110.486C127.054 110.519 127.216 110.66 127.3 110.864L130.485 118.653C130.556 118.826 130.562 119.028 130.502 119.208C130.442 119.387 130.321 119.528 130.17 119.596L122.107 123.207C121.959 123.273 121.862 123.447 121.866 123.638L121.867 123.707C121.867 123.857 121.858 124.009 121.841 124.16C121.819 124.354 121.92 124.547 122.081 124.62L130.17 128.242C130.321 128.31 130.443 128.451 130.502 128.631C130.562 128.81 130.556 129.012 130.485 129.186L127.3 136.974C127.216 137.178 127.054 137.32 126.865 137.352C126.838 137.356 126.81 137.359 126.783 137.359Z" fill="#4357AD"/>
<path d="M89.2226 77.267H82.7366V74.7165C82.7366 70.4414 85.6428 66.9706 89.2226 66.9706L89.2226 77.267Z" fill="#2F2E41"/>
<path d="M87.7849 72.5057L88.9001 78.496L82.3652 77.2001L85.0282 71.5348L87.7849 72.5057Z" fill="#FFB6B6"/>
<path opacity="0.1" d="M87.7849 72.5057L88.9001 78.496L82.3652 77.2001L85.0282 71.5348L87.7849 72.5057Z" fill="black"/>
<path d="M87.7849 85.3022H81.5197V96.376H87.7849V85.3022Z" fill="#FFB6B6"/>
<path d="M91.8572 105.43L90.4789 114.259C90.4789 114.259 91.356 120.394 88.7246 126.679L86.9704 133.114L84.339 132.665C84.339 132.665 85.9679 127.876 85.9679 125.781C85.9679 123.686 86.3439 115.605 86.3439 115.605L86.1559 106.385L91.8572 105.43Z" fill="#FFB6B6"/>
<path d="M83.9631 132.515C83.9631 132.515 86.9704 131.169 87.221 133.114L87.0957 134.012C87.0957 134.012 88.2235 138.052 86.5945 138.352C84.9656 138.651 83.4619 139.1 83.3366 138.202C83.2113 137.304 83.2133 136.183 83.5255 135.397C83.8378 134.61 83.9631 132.515 83.9631 132.515Z" fill="#2F2E41"/>
<path d="M82.3717 104.06L81.6396 112.999C81.6396 112.999 79.3683 118.601 80.4323 125.512L80.6188 132.275L83.251 132.718C83.251 132.718 82.8014 127.577 83.2893 125.565C83.7772 123.552 85.2979 115.666 85.2979 115.666L87.6257 106.871L82.3717 104.06Z" fill="#FFB6B6"/>
<path d="M83.6469 132.699C83.6469 132.699 81.0718 130.407 80.3781 132.192L80.2894 133.096C80.2894 133.096 78.3009 137.565 79.7959 138.393C81.2909 139.222 82.595 139.19 82.9244 138.369C83.2539 137.549 83.513 136.471 83.3962 135.612C83.2793 134.753 83.6469 132.699 83.6469 132.699Z" fill="#2F2E41"/>
<path d="M90.2283 91.2133L95.6164 104.831C95.6164 104.831 84.7776 111.341 78.3871 111.341L81.5601 91.2133L90.2283 91.2133Z" fill="#2F2E41"/>
<path d="M85.4041 75.276L88.5367 75.8746L88.2861 85.3022L91.7946 93.6824L87.2836 96.376C87.2836 96.376 83.7751 88.4448 83.1486 83.5065C82.5221 78.5682 82.898 74.9767 82.898 74.9767L85.4041 75.276Z" fill="#E6E6E6"/>
<path d="M83.0234 75.5753L79.8907 76.1739L80.1414 85.6015L79.3895 94.281L81.1438 96.6753C81.1438 96.6753 84.6523 88.7441 85.2788 83.8058C85.9053 78.8675 85.5294 75.276 85.5294 75.276L83.0234 75.5753Z" fill="#E6E6E6"/>
<path d="M87.8475 76.099L88.5367 75.8746C88.5367 75.8746 90.9801 75.5004 91.356 76.6976C91.7319 77.8948 91.6066 84.9281 91.6066 84.9281C91.6066 84.9281 92.2532 93.5604 89.7371 93.6588C87.221 93.7572 87.7222 86.5742 87.7222 86.5742L87.8475 76.099Z" fill="#E6E6E6"/>
<path d="M86.6914 74.1498C88.4824 74.1498 89.9344 72.4158 89.9344 70.2768C89.9344 68.1378 88.4824 66.4038 86.6914 66.4038C84.9003 66.4038 83.4484 68.1378 83.4484 70.2768C83.4484 72.4158 84.9003 74.1498 86.6914 74.1498Z" fill="#FFB6B6"/>
<path d="M85.6769 75.607C86.3726 75.3962 87.1613 76.2836 87.4388 77.5896C87.5556 78.1095 87.5665 78.6552 87.4706 79.1811L87.7695 80.6657L87.7915 80.6643L90.1495 87.3009C90.6978 88.844 90.6398 90.6155 89.9405 92.0689C89.5245 92.9335 88.9785 93.5148 88.3373 92.9214C87.2733 91.9369 86.5784 86.2997 86.2611 83.0615L85.5275 79.77C85.233 79.3622 85.0245 78.8762 84.9196 78.3525C84.6421 77.047 84.9812 75.8178 85.6769 75.607Z" fill="#FFB6B6"/>
<path d="M82.6475 76.099L81.9583 75.8746C81.9583 75.8746 79.5149 75.5004 79.139 76.6976C78.763 77.8948 78.8884 84.9281 78.8884 84.9281C78.8884 84.9281 78.2418 93.5604 80.7579 93.6588C83.274 93.7572 82.7728 86.5742 82.7728 86.5742L82.6475 76.099Z" fill="#E6E6E6"/>
<path d="M84.818 75.607C84.1223 75.3962 83.3336 76.2836 83.0561 77.5896C82.9393 78.1095 82.9284 78.6552 83.0243 79.1811L82.7254 80.6657L82.7034 80.6643L80.3454 87.3009C79.7971 88.844 79.8551 90.6155 80.5544 92.0689C80.9704 92.9335 81.5164 93.5148 82.1576 92.9214C83.2216 91.9369 83.9165 86.2997 84.2338 83.0615L84.9674 79.77C85.2619 79.3622 85.4704 78.8762 85.5753 78.3525C85.8528 77.047 85.5137 75.8178 84.818 75.607Z" fill="#FFB6B6"/>
<path d="M80.4828 73.41C80.6477 72.811 80.9734 72.2866 81.1191 71.6805C81.3125 70.8758 81.7244 72.6611 81.7646 71.8252C81.841 70.2365 83.8713 66.1497 85.0304 65.3647C86.1895 64.5797 86.8552 64.8164 88.0361 65.5536C88.0361 65.5536 88.6093 65.5972 89.323 66.0179C90.0366 66.4387 90.679 67.1125 90.9565 68.0033C91.1765 68.7094 91.1522 69.4848 91.2257 70.233C91.4305 72.3176 92.4089 74.3001 92.1989 76.3839C92.1334 77.034 91.9265 77.7063 91.4814 78.0887C91.0363 78.4711 90.3172 78.4295 90.0242 77.876C89.9242 77.6872 89.8819 77.4631 89.7963 77.2644C89.7106 77.0658 89.5558 76.8806 89.3687 76.8868C89.0876 76.896 88.9445 77.3466 89.0553 77.6552C89.1662 77.9639 89.4267 78.1503 89.6713 78.3161C89.0888 78.6291 88.3661 78.5316 87.8567 78.0713C87.3472 77.6111 87.0722 76.8071 87.1659 76.0525C87.298 74.9891 88.5952 75.2092 88.748 74.1497C88.8592 73.3785 89.2499 72.088 89.1435 71.3158C89.0371 70.5436 88.526 71.4786 89.0644 71.0325C88.4721 71.3735 87.2052 69.0407 86.5852 68.7794C85.9651 68.5181 85.4394 67.9524 85.1574 67.243C84.4998 68.3815 83.9213 68.0723 83.6857 69.4266C83.4502 70.7808 83.668 73.8576 84.6378 74.6136C84.2497 74.9299 83.9403 75.3822 83.7582 75.8994C83.655 76.1925 83.5881 76.5131 83.4169 76.7565C83.0899 77.2213 82.486 77.2496 82.0047 77.0541C81.4079 76.8118 80.8976 76.2795 80.6163 75.6058C80.3349 74.9322 80.2859 74.1252 80.4828 73.41Z" fill="#2F2E41"/>
</g>
<defs>
<filter id="filter0_d_49_53" x="0" y="0" width="161" height="157" filterUnits="userSpaceOnUse" color-interpolation-filters="sRGB">
<feFlood flood-opacity="0" result="BackgroundImageFix"/>
<feColorMatrix in="SourceAlpha" type="matrix" values="0 0 0 0 0 0 0 0 0 0 0 0 0 0 0 0 0 0 127 0" result="hardAlpha"/>
<feOffset dy="4"/>
<feGaussianBlur stdDeviation="2"/>
<feComposite in2="hardAlpha" operator="out"/>
<feColorMatrix type="matrix" values="0 0 0 0 0 0 0 0 0 0 0 0 0 0 0 0 0 0 0.25 0"/>
<feBlend mode="normal" in2="BackgroundImageFix" result="effect1_dropShadow_49_53"/>
<feBlend mode="normal" in="SourceGraphic" in2="effect1_dropShadow_49_53" result="shape"/>
</filter>
<clipPath id="clip0_49_53">
<rect width="138" height="103" fill="white" transform="translate(12 36)"/>
</clipPath>
</defs>
</svg>
