<svg width="360" height="257" viewBox="0 0 360 257" fill="none" xmlns="http://www.w3.org/2000/svg">
<path fill-rule="evenodd" clip-rule="evenodd" d="M156.165 112.261C152.939 114.469 153.453 118.813 154.424 121.969C155.854 126.616 158.702 130.917 161.952 134.625C167.716 141.204 177.502 148.59 186.522 142.815C194.555 137.672 199.622 127.293 201.371 118.552C201.912 115.85 202.632 111.825 200.092 109.794C196.337 106.792 189.713 107.338 185.181 107.725C182.195 107.979 179.315 108.843 176.365 108.437C169.511 107.495 161.882 108.349 156.165 112.261Z" fill="#FE2781"/>
<path fill-rule="evenodd" clip-rule="evenodd" d="M295.136 146.685C288.601 154.511 277.491 155.747 267.623 155.67C261.697 155.624 255.76 155.203 249.951 154.063C246.819 153.448 243.708 152.634 240.683 151.656C238.684 151.01 235.708 150.687 234.857 148.665C232.614 143.331 234.265 136.641 235.188 131.227C235.659 128.473 236.011 125.703 236.468 122.946C236.761 121.183 236.901 119.232 237.684 117.582C238.6 115.65 239.758 116.035 241.697 116.569C244.368 117.306 247.11 117.611 249.857 118.007C256.559 118.973 262.406 120.921 268.497 123.683C274.52 126.413 280.363 129.108 285.735 132.904C288.457 134.828 290.802 136.916 292.987 139.368C294.675 141.262 297.195 144.22 295.136 146.685ZM266.57 181.443C266.517 182.286 256.275 179.742 254.927 179.457C246.084 177.584 237.065 175.452 228.716 172.069C220.923 168.911 214.057 165.298 207.925 159.688C205.067 157.073 202.496 154.319 200.036 151.386C198.803 149.916 197.118 150.087 195.743 148.843C194.506 147.724 193.558 146.85 193.944 145.177C197.035 145.945 202.741 150.778 205.945 148.338C207.771 146.947 205.239 145.494 204.069 144.688C201.871 143.173 199.992 141.303 198.245 139.341C201.245 139.89 204.037 140.95 206.648 142.427C207.808 143.082 211.784 145.461 212.709 143.194C213.279 141.798 210.583 140.044 209.742 139.272C207.679 137.376 205.45 135.163 204.355 132.614C207.064 132.02 209.618 133.997 211.463 135.607C213.511 137.394 216.021 139.271 217.739 141.33C218.625 142.392 218.817 143.647 219.509 144.793C220.288 146.082 221.534 147.187 222.724 148.141C225.018 149.979 227.701 151.332 230.455 152.451C236.747 155.009 243.492 156.819 250.199 158.089C253.49 158.712 256.7 158.999 260.04 159.104C262.635 159.187 263.784 159.919 264.775 162.177C267.457 168.286 266.97 175.006 266.57 181.443ZM189.545 134.895C188.044 136.221 186.094 137.053 184.525 138.327C183.145 139.448 181.553 140.645 180.012 141.551C178.368 142.519 177.139 141.841 175.658 140.965C173.92 139.937 171.921 139.521 170.131 138.602C163.94 135.421 156.367 127.628 157.522 120.472C158.012 117.439 159.673 114.455 162.689 113.079C165.429 111.829 169.411 111.136 172.342 112.18C173.995 112.769 175.178 114.07 176.237 115.349C177.472 116.84 177.945 116.605 179.203 115.167C181.454 112.595 185.165 110.338 188.834 110.392C190.658 110.42 192.47 110.783 194.112 111.497C194.335 111.594 194.459 111.887 194.682 111.987C194.957 112.108 195.407 111.855 195.598 111.969C196.079 112.256 196.559 113.154 196.837 113.61C197.95 115.438 199.954 119.023 197.934 120.562C197.933 120.563 198.024 122.645 197.996 122.883C197.854 124.125 197.399 125.15 196.813 126.286C195.053 129.698 192.455 132.326 189.545 134.895ZM192.537 163.768C191.116 164.185 189.584 159.979 190.948 159.308C192.248 158.668 193.824 163.391 192.537 163.768ZM170.208 158.739C169.716 160.328 169.508 162.131 168.304 163.424C167.202 162.189 167.093 159.91 168.162 158.641C168.773 157.917 170.747 157.003 170.208 158.739ZM215.702 130.904C215.694 130.944 217.413 131.72 216.575 132.569C215.429 133.728 215.587 131.472 215.702 130.904ZM222.805 117.956C222.785 119.563 219.183 119.175 219.208 117.559C219.24 115.571 222.826 116.254 222.805 117.956ZM218.505 104.531C218.861 103.06 225.127 101.015 224.956 103.578C224.871 104.863 217.748 107.658 218.505 104.531ZM154.269 154.407C153.567 155.204 152.569 155.518 151.727 156.13C150.844 156.771 150.213 157.603 149.442 158.356C147.324 160.423 144.775 162.121 142.491 164.019C138.29 167.51 134.267 171.262 129.61 174.222C121.288 179.511 111.638 182.403 102.058 184.936C101.265 185.146 98.9786 185.993 98.1934 185.362C97.3465 184.682 97.7771 182.288 97.8162 181.383C97.975 177.671 98.4333 173.916 98.3837 170.21C98.3631 168.688 97.8909 166.524 98.7324 165.132C99.6718 163.576 102.294 163.121 103.917 162.536C108.848 160.757 113.598 157.755 117.954 154.976C123.309 151.559 128.717 148.085 134.227 144.895C139.626 141.77 145.581 139.677 151.603 137.892C151.882 138.445 149.008 140.226 148.68 140.476C147.105 141.673 145.391 142.915 144.221 144.495C143.393 145.614 142.544 148.146 144.83 148.211C145.938 148.242 147.577 147.23 148.582 146.903C150.241 146.362 151.952 145.983 153.688 145.736C152.195 147.287 147.136 150.074 148.056 152.654C148.95 155.158 154.116 152.236 155.894 152.236C155.602 153.109 154.87 153.725 154.269 154.407ZM93.2379 161.395C89.9296 162.493 86.5385 163.117 83.124 163.826C79.8694 164.502 76.8611 165.012 73.5276 164.616C68.925 164.07 63.8317 162.27 63.2481 157.333C62.5562 151.484 66.9324 146.109 70.6902 141.912C75.2634 136.806 80.3988 132.241 85.9643 128.108C91.5235 123.979 97.5238 120.338 103.81 117.265C108.593 114.927 113.994 113.508 119.051 111.753C120.013 111.419 122.674 110.246 123.573 111.218C124.301 112.004 123.311 113.314 122.979 114.044C122.333 115.467 122.244 116.899 122.077 118.427C121.331 125.249 120.434 132.07 120.021 138.922C119.906 140.831 119.703 142.829 119.821 144.74C119.887 145.798 120.47 147.146 120.082 148.18C119.335 150.166 115.914 151.481 114.101 152.368C110.856 153.957 107.42 155.142 104.141 156.661C100.541 158.33 97.0348 160.134 93.2379 161.395ZM139.121 117.064C140.029 116.946 141.389 116.713 142.199 117.268C143.254 117.992 142.977 119 142.002 119.525C141.232 119.94 139.43 120.054 138.669 119.677C137.373 119.035 137.593 117.262 139.121 117.064ZM144.15 132.862C143.416 134.016 140.734 134.772 140.968 132.619C141.168 130.776 145.501 130.737 144.15 132.862ZM143.154 100.359C144.334 100.79 146.475 101.16 146.825 102.592C147.15 103.926 145.812 103.837 144.846 103.47C144.052 103.169 140.513 100.336 143.154 100.359ZM327.985 151.22C327.296 148.689 327.82 145.887 327.44 143.294C327.071 140.782 326.408 138.472 325.455 136.104C323.346 130.861 320.93 126.141 317.512 121.54C311.074 112.874 303.604 105.242 294.585 98.9121C285.68 92.6638 275.82 87.5859 265.375 84.0269C254.299 80.2527 243.15 78.9391 231.47 78.2156C227.982 77.9999 224.497 77.7438 221.029 77.3279C218.494 77.0239 215.316 76.6495 212.81 77.3825C211.236 77.8432 210.356 79.1394 212.071 79.9899C213.287 80.5931 214.879 80.6651 216.223 80.8254C214.6 85.6912 211.96 90.5737 207.776 93.924C203.692 97.1952 198.227 98.3164 193.072 99.146C190.277 99.5956 187.147 99.9435 184.308 99.7496C182.514 99.6273 181.113 98.8428 180.389 100.588C179.887 101.8 179.649 103.13 178.986 101.3C178.203 99.1357 177.819 99.1496 175.381 98.5349C170.397 97.2779 164.682 96.1309 160.334 93.4126C155.822 90.5923 154.253 86.0296 151.735 81.7812C151.112 80.7312 149.233 78.6058 150.193 77.4027C151.071 76.3024 153.926 76.412 155.233 76.2972C156.613 76.1761 158.001 76.171 159.385 76.1203C160.187 76.091 161.801 76.4013 161.478 75.2705C160.991 73.5663 155.776 73.7848 154.481 73.7571C152.072 73.706 149.631 73.7586 147.234 74.0088C135.353 75.2492 123.364 77.5428 111.866 80.6014C89.5591 86.535 67.9541 97.4691 51.6743 113.221C36.0474 128.341 31.0965 153.503 40.7034 172.809C45.6959 182.843 56.5307 186.964 67.0337 190.293C72.5735 192.049 78.4398 193.422 84.3288 193.091C87.1548 192.932 89.8363 192.214 92.5926 191.673C93.7945 191.436 95.1624 191.06 96.3971 191.155C97.3318 191.227 98.2295 192.037 99.1063 191.607C99.7285 191.301 99.999 190.424 100.759 190.051C101.672 189.603 102.779 189.441 103.765 189.215C106.506 188.586 109.16 187.567 111.839 186.732C114.609 185.867 117.223 184.754 119.881 183.629C121.223 183.061 124.329 180.75 125.204 182.439C125.603 183.21 125.433 184.697 125.53 185.506C125.7 186.92 125.9 188.331 126.118 189.739C126.6 192.839 127.176 195.927 127.767 199.01C128.833 204.574 130.207 209.9 132.504 215.133C134.338 219.312 135.948 224.048 139.354 227.373C140.841 228.824 142.869 229.477 145.002 229.021C147.428 228.502 148.635 226.422 150.107 224.74C153.347 221.04 158.696 218.204 163.635 217.184C169.683 215.934 175.575 217.762 181.348 219.316C187.454 220.959 193.671 222.525 199.665 224.501C205.25 226.343 211.281 229.062 217.339 228.826C222.621 228.619 227.555 224.561 231.365 221.468C235.191 218.361 239.975 213.811 245.477 214.178C248.209 214.359 250.698 215.603 253.359 216.109C256.28 216.664 259.389 216.743 262.359 216.95C266.047 217.207 274.297 216.299 275.661 212.112C275.863 211.49 275.865 210.211 274.996 209.962C274.196 209.734 273.788 210.616 273.03 210.576C271.489 210.494 270.285 207.958 269.439 206.976C266.023 203.012 261.336 200.055 257.503 196.474C253.174 192.431 249.479 187.533 246.217 182.701C247.691 182.34 249.282 182.94 250.709 183.226C252.444 183.573 254.133 183.992 255.842 184.436C257.726 184.925 259.636 185.262 261.547 185.635C262.973 185.913 264.866 185.997 266.154 186.672C267.277 187.262 267.905 187.895 269.3 188.066C270.718 188.24 272.175 188.093 273.6 188.084C277.455 188.06 281.302 187.992 285.139 187.607C298.696 186.248 313.067 180.834 321.219 170.092C323.436 167.17 325.222 163.932 326.351 160.497C327.232 157.815 328.751 154.036 327.985 151.22Z" fill="black"/>
<path fill-rule="evenodd" clip-rule="evenodd" d="M200.829 27.4429C204.392 27.4905 207.731 28.4878 211.051 29.6216C213.97 30.6185 217.083 31.5408 219.443 33.5306C223.689 37.11 224.795 43.0367 225.49 48.1073C226.357 54.4346 223.472 59.7432 221.045 65.4675C218.775 70.8214 214.608 75.1584 209.655 78.4633C207.06 80.1945 204.192 81.2394 201.191 82.1558C198.143 83.0864 195.192 84.3329 191.931 84.3281C186.979 84.3214 180.639 82.1011 178.529 77.4954C177.569 75.3985 178.504 75.022 180.426 76.1617C183.214 77.8151 185.902 79.5995 189.159 80.333C195.478 81.7559 203.046 79.5515 208.586 76.6429C214.124 73.7351 217.843 69.3671 220.328 63.9279C222.835 58.4408 223.809 53.0338 222.842 47.1183C222.023 42.1052 220.393 37.5262 215.607 34.8048C205.276 28.9309 191.357 29.4042 182.17 37.0378C180.91 38.0843 179.664 39.1026 178.366 40.1019C177.541 40.737 176.569 41.4991 176.689 42.5975C176.791 43.5381 178.916 47.1647 176.357 46.0508C174.284 45.1475 173.157 43.3818 170.644 43.1632C167.971 42.9304 164.781 44.8694 163.981 47.3099C163.218 49.6385 164.579 52.8244 166.71 54.1601C168.029 54.9872 169.481 54.8594 170.98 54.8261C171.724 54.8095 173.794 54.5814 174.286 55.3236C175.157 56.6363 172.085 58.016 171.093 58.3064C168.681 59.0129 165.829 58.1814 164.442 56.1483C163.032 54.0815 162.067 51.6894 161.873 49.2271C161.687 46.868 162.255 44.4795 163.729 42.5424C165.297 40.4823 168.494 38.1728 171.359 38.8884C172.603 39.199 173.603 40.4121 174.823 40.6426C175.594 40.7878 175.269 40.8917 175.908 40.3526C176.313 40.0107 176.696 39.3795 177.07 38.9741C179.221 36.6431 181.347 34.1554 183.98 32.2897C188.7 28.9444 194.973 27.3644 200.829 27.4429ZM187.777 73.6574C188.335 72.4221 189.36 74.6258 189.664 74.9943C190.264 75.7232 191.675 76.2903 191.614 77.3654C191.514 79.1403 188.951 78.811 188.096 77.8852C187.124 76.8311 187.226 74.8774 187.777 73.6574ZM205.984 65.2539C207.366 67.2878 205.681 69.4832 204.588 71.2833C203.543 73.0044 202.572 74.9501 201.356 76.5682C199.336 79.2547 194.942 76.3485 194.811 73.5874C194.711 71.4737 196.297 72.3938 197.315 73.1832C198.363 73.9963 198.86 74.1988 199.958 73.3107C202.168 71.5234 203.161 68.535 204.688 66.2722C204.991 65.8236 205.54 65.5538 205.984 65.2539ZM209.925 65.9079C210.282 66.8915 209.534 69.4977 211.613 69.2371C212.762 69.0932 213.007 67.537 213.611 66.8578C215.642 64.5746 215.019 68.893 214.488 69.9738C213.318 72.356 210.044 73.9972 208.421 70.9752C207.817 69.8511 207.819 68.4322 208.126 67.2238C208.293 66.5656 209.267 64.0915 209.925 65.9079ZM191.385 61.2496C191.201 62.3972 190.058 64.6836 191.453 65.5046C192.681 66.2273 194.819 64.6579 195.764 64.0027C196.746 63.3217 198.972 61.3683 199.059 63.7992C199.104 65.0383 197.79 66.525 196.852 67.2389C194.852 68.7613 190.695 70.1268 189.221 67.2613C188.418 65.7004 188.858 63.4782 189.388 61.9052C189.819 60.6304 191.829 58.4776 191.385 61.2496ZM217.622 54.9665C218.436 55.8589 220.365 57.8582 219.316 59.1291C218.09 60.6146 216.097 57.8891 215.311 57.1306C214.603 56.4472 213.114 54.5013 213.749 53.4692C214.8 51.7612 216.907 54.183 217.622 54.9665ZM204.826 51.1239C207.487 52.7603 203.989 53.9387 202.473 54.0852C200.639 54.2617 198.293 54.3789 196.609 53.5293C194.22 52.3248 195.016 50.5055 197.331 50.0699C199.705 49.6237 202.761 49.8537 204.826 51.1239ZM170.233 45.9145C172.19 46.2739 174.425 46.7417 175.092 48.7556C175.78 50.8369 174.791 51.5276 172.792 51.059C170.943 50.6254 168.181 50.189 167.135 48.4838C165.886 46.4465 168.419 45.5816 170.233 45.9145Z" fill="black"/>
<path fill-rule="evenodd" clip-rule="evenodd" d="M62.562 90.6361C61.9054 92.638 58.5816 93.9658 56.9242 95.1826C51.1267 99.4402 45.4615 103.873 40.2203 108.732C37.4999 111.254 35.4408 114.305 33.0817 117.11C32.5061 117.794 31.4865 119.328 30.3576 119.184C29.119 119.026 28.8686 117.013 28.9081 116.133C29.0434 113.134 31.9448 110.238 34.014 108.173C36.3416 105.851 38.8301 103.588 41.3715 101.474C44.1696 99.1462 47.206 97.1455 50.3003 95.1866C53.3387 93.2632 56.252 91.0411 59.4118 89.2989C60.9004 88.4783 63.3721 88.1661 62.562 90.6361ZM265.217 71.6241C267.637 71.6961 269.998 72.4454 272.28 73.1409C277.3 74.6713 282.082 76.7942 286.796 79.013C295.062 82.9022 303.017 87.6079 310.308 92.9583C311.832 94.0765 313.395 94.9825 315.052 95.8969C316.113 96.4827 317.626 97.1973 318.034 98.3911C319.072 101.426 313.833 98.3799 313.089 97.9442L312.043 97.3319C296.529 88.2555 281.033 79.4368 263.485 74.2316C262.55 73.9543 262.26 73.1672 262.75 72.3869C263.282 71.5413 264.318 71.5974 265.217 71.6241ZM61.856 77.975C61.7438 78.8989 60.6352 79.1091 59.8875 79.4057C57.0976 80.5119 54.2381 81.4553 51.4558 82.5799C46.2917 84.667 41.5494 87.696 36.1593 89.2799C34.9275 89.6426 34.7458 88.469 35.0755 87.6705C35.4428 86.7792 36.546 86.1534 37.3438 85.6379C39.6454 84.1495 42.2557 83.0795 44.8116 82.0457C47.3455 81.0198 49.9546 80.244 52.5526 79.3842C54.9672 78.5848 57.7698 77.0972 60.3628 76.9874L60.4761 76.9822C61.3014 76.9428 61.9867 76.8902 61.856 77.975ZM269.621 63.9387C267.154 63.2835 269.485 61.8092 270.951 61.9127C272.587 62.0284 274.168 62.7574 275.719 63.1972C280.462 64.5414 284.858 66.0115 289.288 68.098C289.949 68.4095 292.86 69.8862 290.934 70.5402C289.6 70.9932 286.483 69.0494 285.338 68.583C280.303 66.5337 274.893 65.338 269.621 63.9387Z" fill="black"/>
<path fill-rule="evenodd" clip-rule="evenodd" d="M171.271 68.7111C171.58 67.8569 175.394 58.52 173.901 58.2384C172.32 57.9399 170.206 63.3571 169.747 64.3359C168.053 67.9507 167.05 71.8292 166.263 75.7066C165.716 78.4063 165.235 81.1721 165.427 83.9323C165.574 86.0535 166.502 86.3746 168.032 87.6745C168.032 81.2314 169.069 74.8093 171.271 68.7111Z" fill="black"/>
</svg>
