<svg width="194" height="207" viewBox="0 0 194 207" fill="none" xmlns="http://www.w3.org/2000/svg">
<g clip-path="url(#clip0_16_261)">
<path d="M103.541 179.937C153.229 179.937 193.509 139.657 193.509 89.9687C193.509 40.2804 153.229 0 103.541 0C53.8523 0 13.5719 40.2804 13.5719 89.9687C13.5719 139.657 53.8523 179.937 103.541 179.937Z" fill="#F2F2F2"/>
<path d="M193.513 170.31C193.513 172.157 151.587 182.167 99.8679 182.167C48.1491 182.167 6.22266 172.157 6.22266 170.31C6.22266 168.463 48.1491 171.526 99.8679 171.526C151.587 171.526 193.513 168.463 193.513 170.31Z" fill="#3F3D56"/>
<path opacity="0.1" d="M193.513 170.31C193.513 172.157 151.587 182.167 99.8679 182.167C48.1491 182.167 6.22266 172.157 6.22266 170.31C6.22266 168.463 48.1491 171.526 99.8679 171.526C151.587 171.526 193.513 168.463 193.513 170.31Z" fill="black"/>
<path d="M99.8679 173.654C151.587 173.654 193.513 172.157 193.513 170.31C193.513 168.463 151.587 166.965 99.8679 166.965C48.1491 166.965 6.22266 168.463 6.22266 170.31C6.22266 172.157 48.1491 173.654 99.8679 173.654Z" fill="#3F3D56"/>
<path d="M189.337 169.398V139.297" stroke="#3F3D56" stroke-width="2" stroke-miterlimit="10"/>
<path d="M189.337 143.554C191.688 143.554 193.593 141.648 193.593 139.297C193.593 136.947 191.688 135.041 189.337 135.041C186.986 135.041 185.08 136.947 185.08 139.297C185.08 141.648 186.986 143.554 189.337 143.554Z" fill="#3F3D56"/>
<path d="M189.337 157.849C189.337 157.849 188.729 144.77 176.263 146.29L189.337 157.849Z" fill="#3F3D56"/>
<path d="M17.3304 171.642V72.5973" stroke="#3F3D56" stroke-width="2" stroke-miterlimit="10"/>
<path d="M17.3305 76.8063C19.6813 76.8063 21.5871 74.9006 21.5871 72.5497C21.5871 70.1988 19.6813 68.2931 17.3305 68.2931C14.9796 68.2931 13.0739 70.1988 13.0739 72.5497C13.0739 74.9006 14.9796 76.8063 17.3305 76.8063Z" fill="#3F3D56"/>
<path d="M4.2566 149.447C6.60746 149.447 8.51321 147.541 8.51321 145.19C8.51321 142.839 6.60746 140.933 4.2566 140.933C1.90575 140.933 0 142.839 0 145.19C0 147.541 1.90575 149.447 4.2566 149.447Z" fill="#3F3D56"/>
<path d="M17.3304 94.2926C17.3304 94.2926 16.7224 81.2139 4.25659 82.7342L17.3304 94.2926Z" fill="#3F3D56"/>
<path d="M17.3304 131.369C17.3304 131.369 16.7224 118.29 4.25659 119.811L17.3304 131.369Z" fill="#3F3D56"/>
<path d="M17.3304 170.472C17.3304 170.472 20.0668 146.406 4.25659 145.19" stroke="#3F3D56" stroke-width="2" stroke-miterlimit="10"/>
<path d="M30.4061 149.447C32.757 149.447 34.6627 147.541 34.6627 145.19C34.6627 142.839 32.757 140.933 30.4061 140.933C28.0553 140.933 26.1495 142.839 26.1495 145.19C26.1495 147.541 28.0553 149.447 30.4061 149.447Z" fill="#3F3D56"/>
<path d="M17.3323 170.472C17.3323 170.472 14.5959 146.406 30.4062 145.19" stroke="#3F3D56" stroke-width="2" stroke-miterlimit="10"/>
<path d="M30.6654 109.518C33.0163 109.518 34.922 107.612 34.922 105.261C34.922 102.911 33.0163 101.005 30.6654 101.005C28.3146 101.005 26.4088 102.911 26.4088 105.261C26.4088 107.612 28.3146 109.518 30.6654 109.518Z" fill="#3F3D56"/>
<path d="M17.5916 130.543C17.5916 130.543 14.8552 106.478 30.6654 105.261" stroke="#3F3D56" stroke-width="2" stroke-miterlimit="10"/>
<path d="M156.597 168.79V108.589" stroke="#3F3D56" stroke-width="2" stroke-miterlimit="10"/>
<path d="M156.597 112.846C158.948 112.846 160.854 110.94 160.854 108.589C160.854 106.238 158.948 104.332 156.597 104.332C154.246 104.332 152.341 106.238 152.341 108.589C152.341 110.94 154.246 112.846 156.597 112.846Z" fill="#3F3D56"/>
<path d="M156.597 125.924C156.597 125.924 157.205 112.846 169.671 114.366L156.597 125.924Z" fill="#3F3D56"/>
<path d="M156.597 167.619C156.597 167.619 153.861 143.554 169.671 142.338" stroke="#3F3D56" stroke-width="2" stroke-miterlimit="10"/>
<path d="M169.671 146.595C172.022 146.595 173.928 144.689 173.928 142.338C173.928 139.987 172.022 138.081 169.671 138.081C167.32 138.081 165.414 139.987 165.414 142.338C165.414 144.689 167.32 146.595 169.671 146.595Z" fill="#3F3D56"/>
<path d="M151.507 62.7448C160.671 62.7448 168.1 55.3156 168.1 46.1512C168.1 36.9867 160.671 29.5575 151.507 29.5575C142.342 29.5575 134.913 36.9867 134.913 46.1512C134.913 55.3156 142.342 62.7448 151.507 62.7448Z" fill="#FE2781"/>
<path d="M124.126 161.512C135.438 161.512 144.609 152.342 144.609 141.03C144.609 129.717 135.438 120.547 124.126 120.547C112.814 120.547 103.643 129.717 103.643 141.03C103.643 152.342 112.814 161.512 124.126 161.512Z" fill="#2F2E41"/>
<path d="M127.238 168.254H133.46V157.105H127.238V168.254Z" fill="#2F2E41"/>
<path d="M114.792 168.254H121.015V157.105H114.792V168.254Z" fill="#2F2E41"/>
<path d="M117.58 171.104C120.06 169.672 121.635 167.758 121.098 166.828C120.561 165.898 118.115 166.304 115.635 167.736C113.155 169.168 111.58 171.083 112.117 172.013C112.654 172.943 115.099 172.536 117.58 171.104Z" fill="#2F2E41"/>
<path d="M129.765 171.104C132.246 169.672 133.821 167.758 133.284 166.828C132.747 165.898 130.301 166.304 127.821 167.736C125.341 169.168 123.765 171.083 124.302 172.013C124.839 172.943 127.285 172.536 129.765 171.104Z" fill="#2F2E41"/>
<path d="M123.608 142.845C127.474 142.845 130.608 139.71 130.608 135.844C130.608 131.978 127.474 128.844 123.608 128.844C119.741 128.844 116.607 131.978 116.607 135.844C116.607 139.71 119.741 142.845 123.608 142.845Z" fill="white"/>
<path d="M121.224 135.196C122.512 135.196 123.557 134.151 123.557 132.862C123.557 131.574 122.512 130.529 121.224 130.529C119.935 130.529 118.89 131.574 118.89 132.862C118.89 134.151 119.935 135.196 121.224 135.196Z" fill="#3F3D56"/>
<path d="M143.995 121.981C145.649 114.574 140.362 107.09 132.187 105.264C124.011 103.439 116.043 107.963 114.389 115.37C112.735 122.777 118.153 125.509 126.329 127.335C134.504 129.16 142.341 129.388 143.995 121.981Z" fill="#4357AD"/>
<path d="M115.596 138.018C116.294 136.386 112.645 133.258 107.445 131.033C102.245 128.807 97.4638 128.326 96.7651 129.959C96.0664 131.591 99.7154 134.719 104.915 136.944C110.115 139.17 114.897 139.651 115.596 138.018Z" fill="#2F2E41"/>
<path d="M153.969 151.76C154.667 150.128 151.018 147 145.818 144.774C140.619 142.549 135.837 142.068 135.138 143.7C134.439 145.333 138.088 148.46 143.288 150.686C148.488 152.911 153.27 153.392 153.969 151.76Z" fill="#2F2E41"/>
<path d="M128.224 149.975C128.224 151.212 127.732 152.4 126.857 153.275C125.982 154.15 124.795 154.642 123.557 154.642C122.319 154.642 121.132 154.15 120.257 153.275C119.382 152.4 118.89 151.212 118.89 149.975C118.89 147.397 120.98 146.863 123.557 146.863C126.135 146.863 128.224 147.397 128.224 149.975Z" fill="white"/>
<path d="M99.7131 134.914V104.814" stroke="#6C63FF" stroke-width="2" stroke-miterlimit="10"/>
<path d="M99.7131 109.07C102.064 109.07 103.97 107.165 103.97 104.814C103.97 102.463 102.064 100.557 99.7131 100.557C97.3623 100.557 95.4565 102.463 95.4565 104.814C95.4565 107.165 97.3623 109.07 99.7131 109.07Z" fill="#4357AD"/>
<path d="M99.713 123.365C99.713 123.365 99.1049 110.287 86.6392 111.807L99.713 123.365Z" fill="#4357AD"/>
<path d="M59.6938 114.305L61.3437 118.194H62.8051L60.7309 108.341C60.7309 102.018 57.6785 96.6741 51.3546 96.6741C49.2341 96.6741 47.2005 97.5164 45.7011 99.0158C44.2017 100.515 43.3594 102.549 43.3594 104.669V114.332C43.3594 114.839 43.4593 115.341 43.6533 115.81C43.8474 116.278 44.1319 116.704 44.4905 117.063C44.8492 117.421 45.2749 117.706 45.7435 117.9C46.212 118.094 46.7142 118.194 47.2214 118.194H58.5594L59.6938 114.305Z" fill="#2F2E41"/>
<path d="M66.5938 153.416C66.5938 153.416 88.1137 150.824 90.7065 155.491C93.2992 160.158 91.4843 164.047 88.1137 166.38C84.7431 168.714 66.0753 179.344 66.0753 179.344L64.5196 181.937L61.149 181.418L57.7784 178.307L59.3341 175.455C59.3341 175.455 72.2979 167.677 72.5572 165.602C72.5572 165.602 60.6305 171.047 59.3341 170.01C58.0377 168.973 43.5183 164.047 45.8518 161.195C48.1852 158.343 54.1486 154.194 54.1486 154.194L66.5938 153.416Z" fill="#2F2E41"/>
<path opacity="0.1" d="M66.5938 153.416C66.5938 153.416 88.1137 150.824 90.7065 155.491C93.2992 160.158 91.4843 164.047 88.1137 166.38C84.7431 168.714 66.0753 179.344 66.0753 179.344L64.5196 181.937L61.149 181.418L57.7784 178.307L59.3341 175.455C59.3341 175.455 72.2979 167.677 72.5572 165.602C72.5572 165.602 60.6305 171.047 59.3341 170.01C58.0377 168.973 43.5183 164.047 45.8518 161.195C48.1852 158.343 54.1486 154.194 54.1486 154.194L66.5938 153.416Z" fill="black"/>
<path d="M63.7417 179.603C63.7417 179.603 67.6309 178.825 66.853 181.418C66.0752 184.011 65.5567 189.196 66.853 190.493C68.1494 191.789 72.2978 197.493 68.1494 198.012C64.001 198.53 59.5933 193.345 59.5933 193.345C59.5933 193.345 56.7413 185.048 54.6671 184.27C52.5929 183.492 50.5187 180.381 51.5558 179.603C52.5929 178.825 58.8155 173.899 59.334 174.158C59.8526 174.418 59.5933 177.27 59.5933 177.27C59.5933 177.27 61.6675 180.64 63.7417 179.603Z" fill="#2F2E41"/>
<path d="M64.1307 124.248L73.7239 130.989C73.7239 130.989 80.9837 123.47 80.9837 119.062C80.9837 114.655 84.8728 106.358 86.6877 109.728C88.5027 113.099 84.6135 121.136 84.6135 121.136L77.3538 138.249C77.3538 138.249 73.2054 139.026 70.8719 137.212C68.5384 135.397 62.0565 131.767 62.0565 131.767L64.1307 124.248Z" fill="#FFB9B9"/>
<path d="M54.6671 112.969C58.6765 112.969 61.9268 109.719 61.9268 105.71C61.9268 101.7 58.6765 98.4498 54.6671 98.4498C50.6576 98.4498 47.4073 101.7 47.4073 105.71C47.4073 109.719 50.6576 112.969 54.6671 112.969Z" fill="#FFB9B9"/>
<path d="M58.4266 110.765C58.4266 110.765 55.8338 117.507 56.8709 119.062C57.908 120.618 59.2044 120.618 60.2415 121.136C60.7601 121.396 66.2049 123.47 66.2049 125.026C66.1798 126.025 65.9129 127.004 65.427 127.878L64.6492 132.285L58.1673 136.434L49.6112 135.397L43.1293 131.767C43.1293 131.767 42.0922 122.174 44.9442 120.618C47.7963 119.062 51.1669 115.432 50.9076 114.136C50.6483 112.84 50.389 109.728 50.389 109.728L58.4266 110.765Z" fill="#FFB9B9"/>
<path d="M69.3162 126.841C69.3162 126.841 65.427 130.73 65.427 131.248C65.427 131.767 68.0198 134.1 66.2048 137.212C64.3899 140.323 64.3899 148.101 64.3899 148.101L58.1673 149.398L46.4999 148.36L44.6849 130.47C44.6849 130.47 49.3519 131.248 50.389 132.026C51.4261 132.804 54.2781 130.989 56.3524 130.989C58.4266 130.989 64.3899 129.952 64.3899 129.952L63.8714 127.878L65.9456 124.248L69.3162 126.841Z" fill="#4357AD"/>
<path d="M54.6672 154.453C54.6672 154.453 80.854 142.786 82.9283 150.305C85.0025 157.824 85.2617 175.973 85.2617 175.973C85.2617 175.973 86.5581 188.419 88.1138 189.715C89.6694 191.011 88.1138 194.901 88.1138 194.901L84.2246 196.197L80.5948 194.641L79.0391 190.493C79.0391 190.493 78.5206 181.159 76.4464 176.492C74.3722 171.825 74.3722 160.935 74.6314 160.417C74.6314 160.417 64.5197 172.862 54.6672 172.084C44.8147 171.306 43.3887 169.103 43.3887 169.103C43.3887 169.103 48.1853 154.453 54.6672 154.453Z" fill="#2F2E41"/>
<path d="M86.558 191.011C86.558 191.011 87.5951 187.382 89.9286 190.234C92.2621 193.086 102.892 197.493 103.152 198.012C103.411 198.53 108.078 201.382 102.633 205.272C97.1883 209.161 89.9286 205.272 89.9286 205.272C89.9286 205.272 83.706 203.197 82.1503 203.457C80.5947 203.716 77.4834 202.16 77.2241 200.864C76.9648 199.568 77.5773 188.171 78.9563 189.332C80.3354 190.493 81.891 193.604 81.891 193.604C81.891 193.604 87.0766 194.901 86.558 191.011Z" fill="#2F2E41"/>
<path d="M63.4825 147.453C63.4825 147.453 64.9085 147.323 64.6492 150.694C64.6492 150.694 55.7042 153.416 54.1485 155.75C52.5929 158.083 45.8517 165.084 44.8146 170.01C44.8146 170.01 37.2956 168.195 41.444 155.231L46.3214 144.656C46.3214 144.656 49.2223 150.564 63.4825 147.453Z" fill="#2F2E41"/>
<path d="M57.3798 153.754L48.5741 149.916C48.5741 149.916 44.4257 141.36 44.4257 137.212C44.3754 134.825 44.1915 132.442 43.8747 130.076C43.6788 128.587 43.8495 127.074 44.3722 125.666C44.8949 124.259 45.7536 123.001 46.8736 122.001C47.7892 121.2 48.8172 120.618 49.8705 120.618C49.8705 120.618 52.9818 126.322 52.4633 131.508C51.9447 136.693 53.2411 144.471 53.2411 144.471L64.9568 150.742" fill="#FFB9B9"/>
<path opacity="0.1" d="M57.3797 153.754L48.5741 149.916C48.5741 149.916 44.4257 141.36 44.4257 137.211C44.4257 135.051 53.5003 128.655 52.9818 133.841C52.4632 139.026 53.241 144.471 53.241 144.471L64.9568 150.742" fill="black"/>
<path d="M53.2411 133.323L52.4145 136.823L47.7964 139.027H43.9072L42.0923 130.73C42.0923 130.73 45.2967 130.052 46.9355 130.909C48.5742 131.767 52.4224 131.972 52.4224 131.972L53.2411 133.323Z" fill="#4357AD"/>
<path d="M57.5426 97.0207C56.136 96.6641 52.8007 96.674 52.3127 96.674C51.1369 96.674 49.9727 96.9056 48.8864 97.3555C47.8002 97.8054 46.8132 98.4649 45.9818 99.2963C45.1504 100.128 44.4909 101.115 44.041 102.201C43.5911 103.287 43.3595 104.451 43.3595 105.627L39.9889 118.194H46.5497L47.7672 113.527L49.4957 118.194H52.7984L53.0823 115.389L54.2001 118.194H57.8789C55.1237 111.96 53.6581 106.277 57.2779 102.77C59.7222 103.103 61.7838 102.448 62.1197 101.123C62.5067 99.5963 60.4575 97.7596 57.5426 97.0207Z" fill="#2F2E41"/>
</g>
<defs>
<clipPath id="clip0_16_261">
<rect width="193.593" height="207" fill="white"/>
</clipPath>
</defs>
</svg>
